<svg width="72" height="72" viewBox="0 0 72 72" fill="none" xmlns="http://www.w3.org/2000/svg">
<path d="M36 6C19.4581 6 6 19.4581 6 36C6 52.5419 19.4581 66 36 66C52.5419 66 66 52.5419 66 36C66 19.4581 52.5419 6 36 6ZM36 10.5C50.1099 10.5 61.5 21.8901 61.5 36C61.5 50.1099 50.1099 61.5 36 61.5C21.8901 61.5 10.5 50.1099 10.5 36C10.5 21.8901 21.8901 10.5 36 10.5ZM36 13.5C35.4033 13.5 34.831 13.7371 34.409 14.159C33.987 14.581 33.75 15.1533 33.75 15.75C33.75 16.3467 33.987 16.919 34.409 17.341C34.831 17.7629 35.4033 18 36 18C36.5967 18 37.169 17.7629 37.591 17.341C38.0129 16.919 38.25 16.3467 38.25 15.75C38.25 15.1533 38.0129 14.581 37.591 14.159C37.169 13.7371 36.5967 13.5 36 13.5ZM46.1601 16.1865C45.7567 16.183 45.3597 16.288 45.0108 16.4906C44.6618 16.6931 44.3738 16.9858 44.1768 17.3379L36 31.5C35.2101 31.5001 34.4342 31.7081 33.7502 32.1031C33.0662 32.4981 32.4982 33.0662 32.1034 33.7503C31.7085 34.4343 31.5006 35.2103 31.5006 36.0002C31.5007 36.79 31.7086 37.566 32.1035 38.25L30.3398 41.3057C30.1847 41.5618 30.0822 41.8463 30.0384 42.1426C29.9946 42.4389 30.0104 42.7409 30.0848 43.031C30.1593 43.3211 30.2909 43.5934 30.4719 43.8319C30.653 44.0705 30.8798 44.2705 31.1392 44.4203C31.3985 44.5701 31.6852 44.6665 31.9823 44.7041C32.2794 44.7416 32.581 44.7195 32.8695 44.639C33.1579 44.5584 33.4274 44.4211 33.6621 44.2351C33.8968 44.0491 34.092 43.8181 34.2363 43.5557L36 40.5C36.7894 40.4996 37.5649 40.2915 38.2485 39.8967C38.932 39.5018 39.4997 38.9341 39.8945 38.2505C40.2893 37.5668 40.4973 36.7914 40.4977 36.002C40.498 35.2125 40.2907 34.4369 39.8965 33.7529L48.0732 19.5879C48.2757 19.2478 48.385 18.8603 48.3899 18.4645C48.3947 18.0686 48.2951 17.6785 48.1011 17.3335C47.907 16.9885 47.6254 16.7008 47.2846 16.4994C46.9438 16.298 46.556 16.1901 46.1601 16.1865ZM25.875 16.2129C25.2783 16.2129 24.706 16.4499 24.284 16.8719C23.8621 17.2939 23.625 17.8662 23.625 18.4629C23.625 19.0596 23.8621 19.6319 24.284 20.0539C24.706 20.4758 25.2783 20.7129 25.875 20.7129C26.4717 20.7129 27.044 20.4758 27.466 20.0539C27.8879 19.6319 28.125 19.0596 28.125 18.4629C28.125 17.8662 27.8879 17.2939 27.466 16.8719C27.044 16.4499 26.4717 16.2129 25.875 16.2129ZM18.4629 23.625C17.8662 23.625 17.2939 23.8621 16.8719 24.284C16.4499 24.706 16.2129 25.2783 16.2129 25.875C16.2129 26.4717 16.4499 27.044 16.8719 27.466C17.2939 27.8879 17.8662 28.125 18.4629 28.125C19.0596 28.125 19.6319 27.8879 20.0539 27.466C20.4758 27.044 20.7129 26.4717 20.7129 25.875C20.7129 25.2783 20.4758 24.706 20.0539 24.284C19.6319 23.8621 19.0596 23.625 18.4629 23.625ZM53.5371 23.625C52.9404 23.625 52.3681 23.8621 51.9461 24.284C51.5242 24.706 51.2871 25.2783 51.2871 25.875C51.2871 26.4717 51.5242 27.044 51.9461 27.466C52.3681 27.8879 52.9404 28.125 53.5371 28.125C54.1338 28.125 54.7061 27.8879 55.1281 27.466C55.55 27.044 55.7871 26.4717 55.7871 25.875C55.7871 25.2783 55.55 24.706 55.1281 24.284C54.7061 23.8621 54.1338 23.625 53.5371 23.625ZM15.75 33.75C15.1533 33.75 14.581 33.987 14.159 34.409C13.7371 34.831 13.5 35.4033 13.5 36C13.5 36.5967 13.7371 37.169 14.159 37.591C14.581 38.0129 15.1533 38.25 15.75 38.25C16.3467 38.25 16.919 38.0129 17.341 37.591C17.7629 37.169 18 36.5967 18 36C18 35.4033 17.7629 34.831 17.341 34.409C16.919 33.987 16.3467 33.75 15.75 33.75ZM56.25 33.75C55.6533 33.75 55.081 33.987 54.659 34.409C54.237 34.831 54 35.4033 54 36C54 36.5967 54.237 37.169 54.659 37.591C55.081 38.0129 55.6533 38.25 56.25 38.25C56.8467 38.25 57.419 38.0129 57.841 37.591C58.2629 37.169 58.5 36.5967 58.5 36C58.5 35.4033 58.2629 34.831 57.841 34.409C57.419 33.987 56.8467 33.75 56.25 33.75ZM18.4629 43.875C17.8662 43.875 17.2939 44.112 16.8719 44.534C16.4499 44.956 16.2129 45.5283 16.2129 46.125C16.2129 46.7217 16.4499 47.294 16.8719 47.716C17.2939 48.1379 17.8662 48.375 18.4629 48.375C19.0596 48.375 19.6319 48.1379 20.0539 47.716C20.4758 47.294 20.7129 46.7217 20.7129 46.125C20.7129 45.5283 20.4758 44.956 20.0539 44.534C19.6319 44.112 19.0596 43.875 18.4629 43.875ZM53.5371 43.875C52.9404 43.875 52.3681 44.112 51.9461 44.534C51.5242 44.956 51.2871 45.5283 51.2871 46.125C51.2871 46.7217 51.5242 47.294 51.9461 47.716C52.3681 48.1379 52.9404 48.375 53.5371 48.375C54.1338 48.375 54.7061 48.1379 55.1281 47.716C55.55 47.294 55.7871 46.7217 55.7871 46.125C55.7871 45.5283 55.55 44.956 55.1281 44.534C54.7061 44.112 54.1338 43.875 53.5371 43.875ZM25.875 51.2871C25.2783 51.2871 24.706 51.5242 24.284 51.9461C23.8621 52.3681 23.625 52.9404 23.625 53.5371C23.625 54.1338 23.8621 54.7061 24.284 55.1281C24.706 55.55 25.2783 55.7871 25.875 55.7871C26.4717 55.7871 27.044 55.55 27.466 55.1281C27.8879 54.7061 28.125 54.1338 28.125 53.5371C28.125 52.9404 27.8879 52.3681 27.466 51.9461C27.044 51.5242 26.4717 51.2871 25.875 51.2871ZM46.125 51.2871C45.5283 51.2871 44.956 51.5242 44.534 51.9461C44.112 52.3681 43.875 52.9404 43.875 53.5371C43.875 54.1338 44.112 54.7061 44.534 55.1281C44.956 55.55 45.5283 55.7871 46.125 55.7871C46.7217 55.7871 47.294 55.55 47.716 55.1281C48.1379 54.7061 48.375 54.1338 48.375 53.5371C48.375 52.9404 48.1379 52.3681 47.716 51.9461C47.294 51.5242 46.7217 51.2871 46.125 51.2871Z" fill="#272B2A"/>
</svg>
