<svg width="72" height="72" viewBox="0 0 72 72" fill="none" xmlns="http://www.w3.org/2000/svg">
<path d="M15.75 7.5C10.3921 7.5 6 11.8921 6 17.25V41.25V50.1768C6 53.1567 9.64814 55.0119 12.0586 53.2617L18.1406 48.8379C18.9024 53.4599 22.9156 57 27.75 57H46.5176L59.9414 66.7617C60.6089 67.2462 61.3921 67.4941 62.1826 67.4941C62.7736 67.4941 63.368 67.3557 63.917 67.0752C65.2025 66.4212 66 65.1183 66 63.6768V30.75C66 25.374 61.626 21 56.25 21H54V17.25C54 11.8921 49.6079 7.5 44.25 7.5H15.75ZM15.75 12H44.25C47.1751 12 49.5 14.3249 49.5 17.25V33.75C49.5 36.6751 47.1751 39 44.25 39H24.75C24.2742 38.9999 23.8106 39.1507 23.4258 39.4307L10.5 48.832V41.25V17.25C10.5 14.3249 12.8249 12 15.75 12ZM20.25 18C19.9518 17.9958 19.6558 18.0509 19.3792 18.162C19.1025 18.2732 18.8507 18.4383 18.6383 18.6476C18.426 18.857 18.2574 19.1065 18.1423 19.3815C18.0272 19.6566 17.968 19.9518 17.968 20.25C17.968 20.5482 18.0272 20.8434 18.1423 21.1185C18.2574 21.3935 18.426 21.643 18.6383 21.8524C18.8507 22.0617 19.1025 22.2268 19.3792 22.338C19.6558 22.4491 19.9518 22.5042 20.25 22.5H39.75C40.0482 22.5042 40.3442 22.4491 40.6208 22.338C40.8975 22.2268 41.1493 22.0617 41.3617 21.8524C41.574 21.643 41.7426 21.3935 41.8577 21.1185C41.9728 20.8434 42.032 20.5482 42.032 20.25C42.032 19.9518 41.9728 19.6566 41.8577 19.3815C41.7426 19.1065 41.574 18.857 41.3617 18.6476C41.1493 18.4383 40.8975 18.2732 40.6208 18.162C40.3442 18.0509 40.0482 17.9958 39.75 18H20.25ZM54 25.5H56.25C59.145 25.5 61.5 27.855 61.5 30.75V62.332L48.5742 52.9307C48.1902 52.6517 47.7255 52.5 47.25 52.5H27.75C24.855 52.5 22.5 50.145 22.5 47.25V45.668L25.4824 43.5H44.25C49.6079 43.5 54 39.1079 54 33.75V25.5ZM20.25 28.5C19.9518 28.4958 19.6558 28.5509 19.3792 28.662C19.1025 28.7732 18.8507 28.9383 18.6383 29.1476C18.426 29.357 18.2574 29.6065 18.1423 29.8815C18.0272 30.1566 17.968 30.4518 17.968 30.75C17.968 31.0482 18.0272 31.3434 18.1423 31.6185C18.2574 31.8935 18.426 32.143 18.6383 32.3524C18.8507 32.5617 19.1025 32.7268 19.3792 32.838C19.6558 32.9491 19.9518 33.0042 20.25 33H35.25C35.5482 33.0042 35.8442 32.9491 36.1208 32.838C36.3975 32.7268 36.6493 32.5617 36.8617 32.3524C37.074 32.143 37.2426 31.8935 37.3577 31.6185C37.4728 31.3434 37.532 31.0482 37.532 30.75C37.532 30.4518 37.4728 30.1566 37.3577 29.8815C37.2426 29.6065 37.074 29.357 36.8617 29.1476C36.6493 28.9383 36.3975 28.7732 36.1208 28.662C35.8442 28.5509 35.5482 28.4958 35.25 28.5H20.25Z" fill="#272B2A"/>
</svg>
