<svg width="72" height="72" viewBox="0 0 72 72" fill="none" xmlns="http://www.w3.org/2000/svg">
<g clip-path="url(#clip0_4530_4255)">
<path d="M10.1719 2.67188C9.72409 2.67198 9.28653 2.80569 8.91516 3.05588C8.54379 3.30607 8.25551 3.66136 8.0872 4.07631C7.9189 4.49126 7.87822 4.94699 7.97037 5.38518C8.06252 5.82338 8.28331 6.22412 8.60449 6.53613L10.7256 8.65723C10.9329 8.87316 11.1812 9.04556 11.456 9.16432C11.7308 9.28309 12.0265 9.34583 12.3259 9.34887C12.6252 9.35191 12.9222 9.2952 13.1993 9.18205C13.4765 9.0689 13.7282 8.90159 13.9399 8.68991C14.1516 8.47824 14.3189 8.22645 14.4321 7.94931C14.5452 7.67216 14.6019 7.37522 14.5989 7.07588C14.5958 6.77654 14.5331 6.48082 14.4143 6.20603C14.2956 5.93124 14.1232 5.68291 13.9072 5.47559L11.7861 3.35449C11.5764 3.13851 11.3255 2.96681 11.0482 2.84956C10.7709 2.73231 10.4729 2.67189 10.1719 2.67188ZM61.7607 2.6748C61.1764 2.69183 60.6216 2.9356 60.2139 3.35449L58.0928 5.47559C57.8768 5.68291 57.7044 5.93124 57.5857 6.20603C57.4669 6.48082 57.4042 6.77654 57.4011 7.07589C57.3981 7.37523 57.4548 7.67217 57.5679 7.94932C57.6811 8.22646 57.8484 8.47825 58.0601 8.68993C58.2717 8.9016 58.5235 9.06892 58.8007 9.18207C59.0778 9.29522 59.3748 9.35193 59.6741 9.34889C59.9735 9.34584 60.2692 9.2831 60.544 9.16433C60.8188 9.04557 61.0671 8.87317 61.2744 8.65723L63.3955 6.53613C63.7201 6.22 63.9417 5.81324 64.0313 5.36908C64.1209 4.92492 64.0743 4.46406 63.8977 4.04681C63.721 3.62955 63.4225 3.27535 63.0413 3.03055C62.66 2.78575 62.2137 2.66176 61.7607 2.6748ZM36 6.02344C24.4347 6.02679 15 15.4304 15 27C15 32.9992 17.5371 38.4292 21.583 42.252C22.0589 42.7013 22.4084 43.3343 22.5703 44.0596L26.2705 60.7148C26.9538 63.7909 29.7084 66 32.8594 66H36H39.1406C42.2919 66 45.0457 63.7907 45.7295 60.7148L49.4326 44.0596V44.0566C49.5931 43.3335 49.9405 42.704 50.417 42.2549V42.252H50.4199C54.464 38.4294 57 32.9992 57 27C57 15.4304 47.5653 6.02679 36 6.02344ZM36 10.5234C45.1407 10.5261 52.5 17.8636 52.5 27C52.5 31.7348 50.512 35.9711 47.3262 38.9824C46.1304 40.1109 45.3753 41.5644 45.0381 43.084L43.2803 51H28.7197L26.9619 43.0811C26.6228 41.5623 25.869 40.111 24.6738 38.9824C21.4867 35.9711 19.5 31.7348 19.5 27C19.5 17.8636 26.8593 10.5261 36 10.5234ZM2.25 22.5C1.95185 22.4958 1.65583 22.5509 1.37916 22.662C1.10248 22.7732 0.850654 22.9383 0.638323 23.1476C0.425991 23.357 0.257384 23.6065 0.142302 23.8815C0.0272198 24.1566 -0.0320435 24.4518 -0.0320435 24.75C-0.0320435 25.0482 0.0272198 25.3434 0.142302 25.6185C0.257384 25.8935 0.425991 26.143 0.638323 26.3524C0.850654 26.5617 1.10248 26.7268 1.37916 26.838C1.65583 26.9491 1.95185 27.0042 2.25 27H6.75C7.04815 27.0042 7.34417 26.9491 7.62085 26.838C7.89753 26.7268 8.14935 26.5617 8.36168 26.3524C8.57401 26.143 8.74262 25.8935 8.8577 25.6185C8.97278 25.3434 9.03205 25.0482 9.03205 24.75C9.03205 24.4518 8.97278 24.1566 8.8577 23.8815C8.74262 23.6065 8.57401 23.357 8.36168 23.1476C8.14935 22.9383 7.89753 22.7732 7.62085 22.662C7.34417 22.5509 7.04815 22.4958 6.75 22.5H2.25ZM65.25 22.5C64.9519 22.4958 64.6558 22.5509 64.3792 22.662C64.1025 22.7732 63.8507 22.9383 63.6383 23.1476C63.426 23.357 63.2574 23.6065 63.1423 23.8815C63.0272 24.1566 62.968 24.4518 62.968 24.75C62.968 25.0482 63.0272 25.3434 63.1423 25.6185C63.2574 25.8935 63.426 26.143 63.6383 26.3524C63.8507 26.5617 64.1025 26.7268 64.3792 26.838C64.6558 26.9491 64.9519 27.0042 65.25 27H69.75C70.0481 27.0042 70.3442 26.9491 70.6208 26.838C70.8975 26.7268 71.1493 26.5617 71.3617 26.3524C71.574 26.143 71.7426 25.8935 71.8577 25.6185C71.9728 25.3434 72.032 25.0482 72.032 24.75C72.032 24.4518 71.9728 24.1566 71.8577 23.8815C71.7426 23.6065 71.574 23.357 71.3617 23.1476C71.1493 22.9383 70.8975 22.7732 70.6208 22.662C70.3442 22.5509 70.0481 22.4958 69.75 22.5H65.25ZM59.6602 40.1602C59.2124 40.1603 58.7748 40.294 58.4034 40.5442C58.0321 40.7943 57.7438 41.1496 57.5755 41.5646C57.4072 41.9795 57.3665 42.4353 57.4586 42.8735C57.5508 43.3117 57.7716 43.7124 58.0928 44.0244L60.2139 46.1455C60.4212 46.3614 60.6695 46.5338 60.9443 46.6526C61.2191 46.7714 61.5148 46.8341 61.8142 46.8371C62.1135 46.8402 62.4104 46.7835 62.6876 46.6703C62.9647 46.5572 63.2165 46.3899 63.4282 46.1782C63.6399 45.9665 63.8072 45.7147 63.9203 45.4376C64.0335 45.1604 64.0902 44.8635 64.0871 44.5642C64.0841 44.2648 64.0214 43.9691 63.9026 43.6943C63.7838 43.4195 63.6114 43.1712 63.3955 42.9639L61.2744 40.8428C61.0647 40.6268 60.8138 40.4551 60.5365 40.3378C60.2592 40.2206 59.9612 40.1602 59.6602 40.1602ZM12.2725 40.1631C11.6881 40.1801 11.1334 40.4239 10.7256 40.8428L8.60449 42.9639C8.38856 43.1712 8.21616 43.4195 8.0974 43.6943C7.97864 43.9691 7.9159 44.2648 7.91285 44.5642C7.90981 44.8635 7.96653 45.1604 8.07968 45.4376C8.19283 45.7147 8.36014 45.9665 8.57181 46.1782C8.78349 46.3899 9.03527 46.5572 9.31242 46.6703C9.58956 46.7835 9.8865 46.8402 10.1858 46.8372C10.4852 46.8341 10.7809 46.7714 11.0557 46.6526C11.3305 46.5338 11.5788 46.3614 11.7861 46.1455L13.9072 44.0244C14.2318 43.7083 14.4534 43.3015 14.543 42.8574C14.6326 42.4132 14.5861 41.9523 14.4094 41.5351C14.2328 41.1178 13.9343 40.7636 13.553 40.5188C13.1717 40.274 12.7254 40.15 12.2725 40.1631ZM29.7217 55.5H42.2783L41.3379 59.7393C41.1067 60.7794 40.2073 61.5 39.1406 61.5H36H32.8594C31.7894 61.5 30.8938 60.7822 30.6621 59.7393L29.7217 55.5Z" fill="#272B2A"/>
</g>
<defs>
<clipPath id="clip0_4530_4255">
<rect width="72" height="72" fill="white"/>
</clipPath>
</defs>
</svg>
