<svg width="72" height="72" viewBox="0 0 72 72" fill="none" xmlns="http://www.w3.org/2000/svg">
<path d="M5.21483 10.4678C4.61861 10.4771 4.05045 10.7227 3.63517 11.1506C3.21989 11.5785 2.99143 12.1538 2.99999 12.75V41.25V51.75V56.25C2.99577 56.5482 3.05085 56.8442 3.16203 57.1209C3.27322 57.3976 3.43828 57.6494 3.64763 57.8617C3.85698 58.074 4.10644 58.2426 4.38152 58.3577C4.6566 58.4728 4.95181 58.5321 5.24999 58.5321C5.54817 58.5321 5.84338 58.4728 6.11846 58.3577C6.39353 58.2426 6.643 58.074 6.85235 57.8617C7.0617 57.6494 7.22676 57.3976 7.33794 57.1209C7.44912 56.8442 7.5042 56.5482 7.49999 56.25V54H64.5V56.25C64.4958 56.5482 64.5509 56.8442 64.662 57.1209C64.7732 57.3976 64.9383 57.6494 65.1476 57.8617C65.357 58.074 65.6064 58.2426 65.8815 58.3577C66.1566 58.4728 66.4518 58.5321 66.75 58.5321C67.0482 58.5321 67.3434 58.4728 67.6185 58.3577C67.8935 58.2426 68.143 58.074 68.3524 57.8617C68.5617 57.6494 68.7268 57.3976 68.8379 57.1209C68.9491 56.8442 69.0042 56.5482 69 56.25V51.75V44.25C69 41.3776 66.6224 39 63.75 39H63.1084C63.9127 37.6542 64.5 36.1709 64.5 34.5C64.5 29.5562 60.4438 25.5 55.5 25.5H31.5C28.9712 25.5 26.6774 26.5642 25.0371 28.2627C25.0004 28.2196 24.9694 28.1734 24.9316 28.1309C23.5193 26.542 21.3125 25.5 18.75 25.5C16.1875 25.5 13.9807 26.542 12.5683 28.1309C11.156 29.7198 10.5 31.75 10.5 33.75C10.5 35.6003 11.0701 37.4714 12.2724 39H7.49999V12.75C7.50431 12.4489 7.44813 12.1499 7.33478 11.8709C7.22143 11.5919 7.05323 11.3384 6.84012 11.1256C6.62702 10.9128 6.37336 10.7449 6.09418 10.6319C5.815 10.5189 5.51597 10.4631 5.21483 10.4678ZM18.75 30C20.1875 30 20.9807 30.4581 21.5683 31.1192C22.156 31.7803 22.5 32.75 22.5 33.75C22.5 34.75 22.156 35.7198 21.5683 36.3809C20.9807 37.042 20.1875 37.5 18.75 37.5C17.3125 37.5 16.5193 37.042 15.9316 36.3809C15.344 35.7198 15 34.75 15 33.75C15 32.75 15.344 31.7803 15.9316 31.1192C16.5193 30.4581 17.3125 30 18.75 30ZM31.5 30H55.5C58.0112 30 60 31.9888 60 34.5C60 37.0112 58.0112 39 55.5 39H27V34.5C27 31.9888 28.9888 30 31.5 30ZM7.49999 43.5H24.75H55.5H63.75C64.1926 43.5 64.5 43.8075 64.5 44.25V49.5H7.49999V43.5Z" fill="#272B2A"/>
</svg>
