<svg width="72" height="72" viewBox="0 0 72 72" fill="none" xmlns="http://www.w3.org/2000/svg">
<g clip-path="url(#clip0_4530_4257)">
<path d="M5.2002 5.97952C4.73295 5.98419 4.27875 6.13421 3.90063 6.40874C3.52252 6.68327 3.23924 7.0687 3.09013 7.51154C2.94101 7.95438 2.93345 8.43265 3.0685 8.87998C3.20355 9.32731 3.4745 9.7215 3.84375 10.0078L11.3438 16.0078C11.81 16.3808 12.4052 16.5533 12.9986 16.4874C13.592 16.4214 14.1349 16.1225 14.5078 15.6563C14.8808 15.1901 15.0533 14.5948 14.9873 14.0014C14.9214 13.4081 14.6225 12.8652 14.1563 12.4922L6.65625 6.49222C6.24654 6.15498 5.73082 5.97339 5.2002 5.97952ZM66.7324 5.97952C66.225 5.98892 65.7356 6.1696 65.3438 6.49222L57.8438 12.4922C57.3775 12.8652 57.0786 13.4081 57.0127 14.0014C56.9467 14.5948 57.1192 15.1901 57.4922 15.6563C57.8651 16.1225 58.408 16.4214 59.0014 16.4874C59.5948 16.5533 60.19 16.3808 60.6562 16.0078L68.1562 10.0078C68.5302 9.71801 68.8033 9.3177 68.9367 8.86379C69.0701 8.40988 69.057 7.92547 68.8994 7.4794C68.7417 7.03334 68.4474 6.64831 68.0584 6.37905C67.6694 6.10979 67.2054 5.96999 66.7324 5.97952ZM36 6.00003C23.6001 6.00003 13.5 16.1001 13.5 28.5V40.7784L9.35742 50.2471C8.30762 52.6482 10.1729 55.5 12.7939 55.5H27C27 60.4438 31.0562 64.5 36 64.5C40.9438 64.5 45 60.4438 45 55.5H59.2061C61.8271 55.5 63.6924 52.6482 62.6426 50.2471L58.5 40.7784V28.5C58.5 16.1001 48.3999 6.00003 36 6.00003ZM36 10.5C45.9681 10.5 54 18.532 54 28.5V41.25C53.9996 41.5605 54.0634 41.8678 54.1875 42.1524L58.0605 51H36H13.9395L17.8125 42.1524C17.9366 41.8678 18.0004 41.5605 18 41.25V28.5C18 18.532 26.0319 10.5 36 10.5ZM2.25 24C1.95185 23.9958 1.65583 24.0509 1.37916 24.1621C1.10248 24.2733 0.850654 24.4383 0.638323 24.6477C0.425991 24.857 0.257384 25.1065 0.142302 25.3816C0.0272198 25.6566 -0.0320435 25.9518 -0.0320435 26.25C-0.0320435 26.5482 0.0272198 26.8434 0.142302 27.1185C0.257384 27.3936 0.425991 27.643 0.638323 27.8524C0.850654 28.0617 1.10248 28.2268 1.37916 28.338C1.65583 28.4492 1.95185 28.5042 2.25 28.5H8.25C8.54815 28.5042 8.84417 28.4492 9.12085 28.338C9.39753 28.2268 9.64935 28.0617 9.86168 27.8524C10.074 27.643 10.2426 27.3936 10.3577 27.1185C10.4728 26.8434 10.532 26.5482 10.532 26.25C10.532 25.9518 10.4728 25.6566 10.3577 25.3816C10.2426 25.1065 10.074 24.857 9.86168 24.6477C9.64935 24.4383 9.39753 24.2733 9.12085 24.1621C8.84417 24.0509 8.54815 23.9958 8.25 24H2.25ZM63.75 24C63.4518 23.9958 63.1558 24.0509 62.8792 24.1621C62.6025 24.2733 62.3507 24.4383 62.1383 24.6477C61.926 24.857 61.7574 25.1065 61.6423 25.3816C61.5272 25.6566 61.468 25.9518 61.468 26.25C61.468 26.5482 61.5272 26.8434 61.6423 27.1185C61.7574 27.3936 61.926 27.643 62.1383 27.8524C62.3507 28.0617 62.6025 28.2268 62.8792 28.338C63.1558 28.4492 63.4518 28.5042 63.75 28.5H69.75C70.0481 28.5042 70.3442 28.4492 70.6208 28.338C70.8975 28.2268 71.1493 28.0617 71.3617 27.8524C71.574 27.643 71.7426 27.3936 71.8577 27.1185C71.9728 26.8434 72.032 26.5482 72.032 26.25C72.032 25.9518 71.9728 25.6566 71.8577 25.3816C71.7426 25.1065 71.574 24.857 71.3617 24.6477C71.1493 24.4383 70.8975 24.2733 70.6208 24.1621C70.3442 24.0509 70.0481 23.9958 69.75 24H63.75ZM31.5 55.5H36H40.5C40.5 58.0112 38.5112 60 36 60C33.4888 60 31.5 58.0112 31.5 55.5Z" fill="#272B2A"/>
</g>
<defs>
<clipPath id="clip0_4530_4257">
<rect width="72" height="72" fill="white"/>
</clipPath>
</defs>
</svg>
