<svg width="72" height="72" viewBox="0 0 72 72" fill="none" xmlns="http://www.w3.org/2000/svg">
<path d="M23.2061 14.9795C23.1257 14.982 23.0455 14.9889 22.9658 15H9.75C6.04875 15 3 18.0487 3 21.75V34.916C2.95935 35.1604 2.95935 35.4099 3 35.6543V36.75C3 40.4512 6.04875 43.5 9.75 43.5H10.5V59.25C10.5001 59.8467 10.7371 60.419 11.1591 60.8409C11.581 61.2629 12.1533 61.4999 12.75 61.5H21.75C22.3467 61.4999 22.919 61.2629 23.3409 60.8409C23.7629 60.419 23.9999 59.8467 24 59.25V43.5H31.8457C32.0892 43.5403 32.3376 43.5403 32.5811 43.5H48V59.25C48.0001 59.8467 48.2371 60.419 48.6591 60.8409C49.081 61.2629 49.6533 61.4999 50.25 61.5H59.25C59.8467 61.4999 60.419 61.2629 60.8409 60.8409C61.2629 60.419 61.4999 59.8467 61.5 59.25V43.5H62.25C65.9513 43.5 69 40.4512 69 36.75V23.5107C69.0243 23.3211 69.0243 23.1291 69 22.9394V21.75C69 18.0487 65.9513 15 62.25 15H56.5518C56.4372 14.9843 56.3216 14.9774 56.2061 14.9795C56.1257 14.982 56.0455 14.9889 55.9658 15H40.0518C39.9372 14.9843 39.8216 14.9774 39.7061 14.9795C39.6257 14.982 39.5455 14.9889 39.4658 15H23.5518C23.4372 14.9843 23.3216 14.9774 23.2061 14.9795ZM9.75 19.5H17.8184L7.5 29.8183V21.75C7.5 20.4802 8.48025 19.5 9.75 19.5ZM24.1816 19.5H34.3184L14.8184 39H13.0898C12.8636 38.9653 12.6334 38.9653 12.4072 39H9.75C8.48025 39 7.5 38.0197 7.5 36.75V36.1816L24.1816 19.5ZM40.6816 19.5H50.8184L31.3184 39H22.0928C21.8685 38.9659 21.6403 38.9659 21.416 39H21.1816L40.6816 19.5ZM57.1816 19.5H62.25C63.5197 19.5 64.5 20.4802 64.5 21.75V22.3183L47.8184 39H37.6816L57.1816 19.5ZM64.5 28.6816V36.75C64.5 38.0197 63.5197 39 62.25 39H59.6191C59.3776 38.9603 59.1312 38.9603 58.8896 39H54.1816L64.5 28.6816ZM15 43.5H15.4219C15.6173 43.5258 15.8153 43.5258 16.0107 43.5H19.5V57H15V43.5ZM52.5 43.5H57V57H52.5V43.5Z" fill="#272B2A"/>
</svg>
