<svg width="72" height="72" viewBox="0 0 72 72" fill="none" xmlns="http://www.w3.org/2000/svg">
<path d="M8.22656 5.97656C7.77878 5.97667 7.34121 6.11037 6.96984 6.36056C6.59848 6.61075 6.31019 6.96605 6.14189 7.381C5.97358 7.79595 5.9329 8.25167 6.02505 8.68987C6.1172 9.12807 6.338 9.52881 6.65918 9.84082L14.1592 17.3408C14.3665 17.5568 14.6148 17.7292 14.8896 17.8479C15.1644 17.9667 15.4601 18.0294 15.7595 18.0325C16.0588 18.0355 16.3557 17.9788 16.6329 17.8656C16.91 17.7525 17.1618 17.5852 17.3735 17.3735C17.5852 17.1618 17.7525 16.91 17.8656 16.6329C17.9788 16.3558 18.0355 16.0588 18.0325 15.7595C18.0294 15.4601 17.9667 15.1644 17.8479 14.8896C17.7292 14.6148 17.5568 14.3665 17.3408 14.1592L9.84082 6.65918C9.63109 6.4432 9.38016 6.2715 9.10288 6.15425C8.8256 6.037 8.52761 5.97657 8.22656 5.97656ZM63.7061 5.97949C63.1217 5.99652 62.5669 6.24029 62.1592 6.65918L54.6592 14.1592C54.4432 14.3665 54.2708 14.6148 54.1521 14.8896C54.0333 15.1644 53.9706 15.4601 53.9675 15.7595C53.9645 16.0588 54.0212 16.3558 54.1344 16.6329C54.2475 16.91 54.4148 17.1618 54.6265 17.3735C54.8382 17.5852 55.09 17.7525 55.3671 17.8656C55.6442 17.9788 55.9412 18.0355 56.2405 18.0325C56.5399 18.0294 56.8356 17.9667 57.1104 17.8479C57.3852 17.7292 57.6335 17.5568 57.8408 17.3408L65.3408 9.84082C65.6654 9.52469 65.887 9.11793 65.9766 8.67377C66.0662 8.22961 66.0197 7.76875 65.843 7.35149C65.6664 6.93424 65.3678 6.58004 64.9866 6.33524C64.6053 6.09044 64.159 5.96645 63.7061 5.97949ZM41.1826 6C40.8609 6.01006 40.5451 6.08902 40.2565 6.23154C39.9679 6.37406 39.7133 6.57684 39.5098 6.82617L12.5098 39.8262C12.2405 40.1558 12.0702 40.555 12.0187 40.9775C11.9672 41.4 12.0366 41.8284 12.2188 42.2131C12.401 42.5977 12.6886 42.9228 13.0481 43.1506C13.4076 43.3784 13.8244 43.4995 14.25 43.5H28.5V63.75C28.5006 64.2137 28.6445 64.6659 28.9119 65.0447C29.1793 65.4235 29.5572 65.7105 29.994 65.8663C30.4307 66.0222 30.9049 66.0393 31.3518 65.9153C31.7986 65.7914 32.1962 65.5324 32.4902 65.1738L59.4902 32.1738C59.7595 31.8442 59.9298 31.445 59.9813 31.0225C60.0328 30.6 59.9634 30.1716 59.7812 29.7869C59.599 29.4023 59.3114 29.0772 58.9519 28.8494C58.5924 28.6216 58.1756 28.5005 57.75 28.5H43.5V8.25C43.5001 7.94878 43.4397 7.6506 43.3225 7.37315C43.2052 7.09569 43.0334 6.84461 42.8173 6.63477C42.6012 6.42494 42.3451 6.26064 42.0643 6.1516C41.7835 6.04256 41.4837 5.99101 41.1826 6ZM39 14.5518V30.75C39.0001 31.3467 39.2371 31.919 39.6591 32.3409C40.081 32.7629 40.6533 32.9999 41.25 33H53.0039L33 57.4482V41.25C32.9999 40.6533 32.7629 40.081 32.3409 39.6591C31.919 39.2371 31.3467 39.0001 30.75 39H18.9961L39 14.5518ZM56.2266 53.9766C55.7788 53.9767 55.3412 54.1104 54.9698 54.3606C54.5985 54.6108 54.3102 54.966 54.1419 55.381C53.9736 55.7959 53.9329 56.2517 54.025 56.6899C54.1172 57.1281 54.338 57.5288 54.6592 57.8408L62.1592 65.3408C62.3665 65.5568 62.6148 65.7292 62.8896 65.8479C63.1644 65.9667 63.4601 66.0294 63.7595 66.0325C64.0588 66.0355 64.3557 65.9788 64.6329 65.8656C64.91 65.7525 65.1618 65.5852 65.3735 65.3735C65.5852 65.1618 65.7525 64.91 65.8656 64.6329C65.9788 64.3557 66.0355 64.0588 66.0325 63.7595C66.0294 63.4601 65.9667 63.1644 65.8479 62.8896C65.7291 62.6148 65.5568 62.3665 65.3408 62.1592L57.8408 54.6592C57.6311 54.4432 57.3802 54.2715 57.1029 54.1543C56.8256 54.037 56.5276 53.9766 56.2266 53.9766ZM15.7061 53.9795C15.1217 53.9965 14.5669 54.2403 14.1592 54.6592L6.65918 62.1592C6.44324 62.3665 6.27085 62.6148 6.15208 62.8896C6.03332 63.1644 5.97058 63.4601 5.96754 63.7595C5.9645 64.0588 6.02121 64.3557 6.13436 64.6329C6.24751 64.91 6.41482 65.1618 6.6265 65.3735C6.83817 65.5852 7.08996 65.7525 7.3671 65.8656C7.64425 65.9788 7.94119 66.0355 8.24053 66.0325C8.53986 66.0294 8.83559 65.9667 9.11037 65.8479C9.38516 65.7292 9.63349 65.5568 9.84082 65.3408L17.3408 57.8408C17.6654 57.5247 17.887 57.1179 17.9766 56.6738C18.0662 56.2296 18.0197 55.7687 17.843 55.3515C17.6664 54.9342 17.3678 54.58 16.9866 54.3352C16.6053 54.0904 16.159 53.9664 15.7061 53.9795Z" fill="#272B2A"/>
</svg>
