<svg width="72" height="72" viewBox="0 0 72 72" fill="none" xmlns="http://www.w3.org/2000/svg">
<path d="M35.7422 4.51468C33.5859 4.53214 31.4373 5.36537 29.8183 7.01078L6.91403 30.293C3.67622 33.5838 3.7199 38.9438 7.01071 42.1817L30.2929 65.086C33.5837 68.3238 38.9437 68.2801 42.1816 64.9893L65.0859 41.71C65.0869 41.709 65.0879 41.708 65.0888 41.7071C68.3241 38.4148 68.28 33.0563 64.9892 29.8184L41.707 6.9141C40.0616 5.29519 37.8984 4.49723 35.7422 4.51468ZM35.7802 8.98539C36.7755 8.97733 37.7731 9.35601 38.5517 10.1221L61.834 33.0264C63.3911 34.5585 63.4097 36.996 61.8779 38.5547L38.9736 61.834C37.4415 63.3912 35.0055 63.4101 33.4482 61.878L10.166 38.9737C8.6088 37.4415 8.58986 35.0055 10.122 33.4483L33.0263 10.1661C33.7924 9.38746 34.785 8.99344 35.7802 8.98539ZM35.9648 19.4678C35.3691 19.4771 34.8014 19.7223 34.3862 20.1496C33.971 20.5769 33.7422 21.1514 33.75 21.7471V39.7471C33.7458 40.0453 33.8008 40.3413 33.912 40.618C34.0232 40.8946 34.1883 41.1465 34.3976 41.3588C34.607 41.5711 34.8564 41.7397 35.1315 41.8548C35.4066 41.9699 35.7018 42.0292 36 42.0292C36.2982 42.0292 36.5934 41.9699 36.8684 41.8548C37.1435 41.7397 37.393 41.5711 37.6023 41.3588C37.8117 41.1465 37.9767 40.8946 38.0879 40.618C38.1991 40.3413 38.2542 40.0453 38.25 39.7471V21.7471C38.2539 21.4462 38.1974 21.1476 38.0839 20.8689C37.9704 20.5902 37.8021 20.3371 37.589 20.1246C37.376 19.9121 37.1225 19.7444 36.8435 19.6316C36.5645 19.5188 36.2657 19.4631 35.9648 19.4678ZM36 46.4971C35.2043 46.4971 34.4413 46.8132 33.8787 47.3758C33.316 47.9384 33 48.7015 33 49.4971C33 50.2928 33.316 51.0558 33.8787 51.6184C34.4413 52.181 35.2043 52.4971 36 52.4971C36.7956 52.4971 37.5587 52.181 38.1213 51.6184C38.6839 51.0558 39 50.2928 39 49.4971C39 48.7015 38.6839 47.9384 38.1213 47.3758C37.5587 46.8132 36.7956 46.4971 36 46.4971Z" fill="#272B2A"/>
</svg>
