<svg width="72" height="72" viewBox="0 0 72 72" fill="none" xmlns="http://www.w3.org/2000/svg">
<path d="M30.75 6C27.3051 6 24.4586 8.64994 24.0762 12H18.75C15.0487 12 12 15.0487 12 18.75V59.25C12 62.9513 15.0487 66 18.75 66H53.25C56.9513 66 60 62.9513 60 59.25V18.75C60 15.0487 56.9513 12 53.25 12H47.9238C47.5414 8.64994 44.6949 6 41.25 6H30.75ZM30.75 10.5H41.25C42.5197 10.5 43.5 11.4803 43.5 12.75C43.5 14.0197 42.5197 15 41.25 15H30.75C29.4803 15 28.5 14.0197 28.5 12.75C28.5 11.4803 29.4803 10.5 30.75 10.5ZM18.75 16.5H25.1543C26.3719 18.3028 28.4321 19.5 30.75 19.5H41.25C43.5679 19.5 45.6281 18.3028 46.8457 16.5H53.25C54.5197 16.5 55.5 17.4803 55.5 18.75V59.25C55.5 60.5197 54.5197 61.5 53.25 61.5H18.75C17.4803 61.5 16.5 60.5197 16.5 59.25V18.75C16.5 17.4803 17.4803 16.5 18.75 16.5ZM24.75 30C24.1533 30 23.581 30.2371 23.159 30.659C22.7371 31.081 22.5 31.6533 22.5 32.25C22.5 32.8467 22.7371 33.419 23.159 33.841C23.581 34.2629 24.1533 34.5 24.75 34.5C25.3467 34.5 25.919 34.2629 26.341 33.841C26.7629 33.419 27 32.8467 27 32.25C27 31.6533 26.7629 31.081 26.341 30.659C25.919 30.2371 25.3467 30 24.75 30ZM33.75 30C33.4518 29.9958 33.1558 30.0509 32.8792 30.162C32.6025 30.2732 32.3507 30.4383 32.1383 30.6476C31.926 30.857 31.7574 31.1065 31.6423 31.3815C31.5272 31.6566 31.468 31.9518 31.468 32.25C31.468 32.5482 31.5272 32.8434 31.6423 33.1185C31.7574 33.3935 31.926 33.643 32.1383 33.8524C32.3507 34.0617 32.6025 34.2268 32.8792 34.338C33.1558 34.4491 33.4518 34.5042 33.75 34.5H47.25C47.5482 34.5042 47.8442 34.4491 48.1208 34.338C48.3975 34.2268 48.6493 34.0617 48.8617 33.8524C49.074 33.643 49.2426 33.3935 49.3577 33.1185C49.4728 32.8434 49.532 32.5482 49.532 32.25C49.532 31.9518 49.4728 31.6566 49.3577 31.3815C49.2426 31.1065 49.074 30.857 48.8617 30.6476C48.6493 30.4383 48.3975 30.2732 48.1208 30.162C47.8442 30.0509 47.5482 29.9958 47.25 30H33.75ZM24.75 39C24.1533 39 23.581 39.2371 23.159 39.659C22.7371 40.081 22.5 40.6533 22.5 41.25C22.5 41.8467 22.7371 42.419 23.159 42.841C23.581 43.2629 24.1533 43.5 24.75 43.5C25.3467 43.5 25.919 43.2629 26.341 42.841C26.7629 42.419 27 41.8467 27 41.25C27 40.6533 26.7629 40.081 26.341 39.659C25.919 39.2371 25.3467 39 24.75 39ZM33.75 39C33.4518 38.9958 33.1558 39.0509 32.8792 39.162C32.6025 39.2732 32.3507 39.4383 32.1383 39.6476C31.926 39.857 31.7574 40.1065 31.6423 40.3815C31.5272 40.6566 31.468 40.9518 31.468 41.25C31.468 41.5482 31.5272 41.8434 31.6423 42.1185C31.7574 42.3935 31.926 42.643 32.1383 42.8524C32.3507 43.0617 32.6025 43.2268 32.8792 43.338C33.1558 43.4491 33.4518 43.5042 33.75 43.5H47.25C47.5482 43.5042 47.8442 43.4491 48.1208 43.338C48.3975 43.2268 48.6493 43.0617 48.8617 42.8524C49.074 42.643 49.2426 42.3935 49.3577 42.1185C49.4728 41.8434 49.532 41.5482 49.532 41.25C49.532 40.9518 49.4728 40.6566 49.3577 40.3815C49.2426 40.1065 49.074 39.857 48.8617 39.6476C48.6493 39.4383 48.3975 39.2732 48.1208 39.162C47.8442 39.0509 47.5482 38.9958 47.25 39H33.75ZM24.75 48C24.1533 48 23.581 48.2371 23.159 48.659C22.7371 49.081 22.5 49.6533 22.5 50.25C22.5 50.8467 22.7371 51.419 23.159 51.841C23.581 52.2629 24.1533 52.5 24.75 52.5C25.3467 52.5 25.919 52.2629 26.341 51.841C26.7629 51.419 27 50.8467 27 50.25C27 49.6533 26.7629 49.081 26.341 48.659C25.919 48.2371 25.3467 48 24.75 48ZM33.75 48C33.4518 47.9958 33.1558 48.0509 32.8792 48.162C32.6025 48.2732 32.3507 48.4383 32.1383 48.6476C31.926 48.857 31.7574 49.1065 31.6423 49.3815C31.5272 49.6566 31.468 49.9518 31.468 50.25C31.468 50.5482 31.5272 50.8434 31.6423 51.1185C31.7574 51.3935 31.926 51.643 32.1383 51.8524C32.3507 52.0617 32.6025 52.2268 32.8792 52.338C33.1558 52.4491 33.4518 52.5042 33.75 52.5H47.25C47.5482 52.5042 47.8442 52.4491 48.1208 52.338C48.3975 52.2268 48.6493 52.0617 48.8617 51.8524C49.074 51.643 49.2426 51.3935 49.3577 51.1185C49.4728 50.8434 49.532 50.5482 49.532 50.25C49.532 49.9518 49.4728 49.6566 49.3577 49.3815C49.2426 49.1065 49.074 48.857 48.8617 48.6476C48.6493 48.4383 48.3975 48.2732 48.1208 48.162C47.8442 48.0509 47.5482 47.9958 47.25 48H33.75Z" fill="#272B2A"/>
</svg>
