<svg width="99" height="54" viewBox="0 0 99 54" fill="none" xmlns="http://www.w3.org/2000/svg">
<path d="M71.3768 45.253L67.5362 38.855C65.7657 35.902 64.829 32.5219 64.829 29.077V23.4726C64.829 14.8459 57.8073 7.82426 49.1806 7.82426C40.5539 7.82426 33.5323 14.8459 33.5323 23.4726V29.077C33.5323 32.5219 32.5956 35.902 30.8251 38.855L26.9845 45.253C26.7766 45.5972 26.7721 46.0287 26.9689 46.3775C27.1679 46.7284 27.5411 46.9453 27.9435 46.9453H70.4177C70.8201 46.9453 71.1934 46.7285 71.3923 46.3775C71.5891 46.0286 71.5847 45.5972 71.3768 45.253ZM29.9175 44.7097L32.7409 40.004C34.7215 36.7044 35.7677 32.9265 35.7677 29.077V23.4726C35.7677 16.0754 41.7834 10.0597 49.1806 10.0597C56.5779 10.0597 62.5935 16.0754 62.5935 23.4726V29.077C62.5935 32.9265 63.6398 36.7044 65.6182 40.004L68.4438 44.7097H29.9175Z" fill="#272B2A"/>
<path d="M49.1807 0C46.7149 0 44.7097 2.00523 44.7097 4.471V8.94201C44.7097 9.55889 45.2105 10.0597 45.8275 10.0597C46.4445 10.0597 46.9453 9.55889 46.9453 8.9419V4.471C46.9453 3.23702 47.9467 2.23555 49.1807 2.23555C50.4147 2.23555 51.4162 3.23702 51.4162 4.471V8.94201C51.4162 9.55889 51.917 10.0597 52.534 10.0597C53.1509 10.0597 53.6517 9.55889 53.6517 8.9419V4.471C53.6517 2.00523 51.6465 0 49.1807 0Z" fill="#272B2A"/>
<path d="M54.0182 45.2618C53.703 44.7298 53.0212 44.5554 52.487 44.8616C51.9527 45.1746 51.7739 45.8609 52.0868 46.3929C52.3774 46.887 52.5361 47.4793 52.5361 48.0628C52.5361 49.9116 51.0317 51.416 49.1829 51.416C47.3341 51.416 45.8297 49.9116 45.8297 48.0628C45.8297 47.4793 45.9884 46.887 46.279 46.3929C46.5897 45.8586 46.4109 45.1745 45.8788 44.8616C45.3401 44.5553 44.6604 44.7297 44.3475 45.2618C43.8535 46.1068 43.5919 47.0747 43.5919 48.0629C43.592 51.1456 46.0979 53.6516 49.1807 53.6516C52.2635 53.6516 54.7694 51.1456 54.7739 48.0629C54.7739 47.0747 54.5123 46.1068 54.0182 45.2618Z" fill="#272B2A"/>
<path d="M9.22463 42.1548C9.06401 42.1548 8.8919 42.1198 8.70833 42.0496C5.90881 40.9618 3.75181 39.3565 2.23732 37.2336C0.745773 35.1283 0 32.83 0 30.3387C0 27.9176 0.757246 25.6807 2.27174 23.628C3.80918 21.5578 5.96618 19.891 8.74275 18.6278C8.90338 18.5577 9.06401 18.5226 9.22463 18.5226C9.47705 18.5226 9.68357 18.6015 9.8442 18.7594C10.0278 18.8998 10.1196 19.0577 10.1196 19.2331C10.1196 19.4788 9.98188 19.6805 9.70652 19.8384C7.32004 20.8911 5.44988 22.3736 4.09601 24.2859C2.74215 26.1982 2.06522 28.2158 2.06522 30.3387C2.06522 32.4967 2.73067 34.5406 4.06159 36.4705C5.39251 38.4003 7.27415 39.8653 9.70652 40.8653C9.98188 40.9706 10.1196 41.1636 10.1196 41.4443C10.1196 41.6373 10.0392 41.804 9.87862 41.9443C9.71799 42.0847 9.5 42.1548 9.22463 42.1548Z" fill="#272B2A"/>
<path d="M22.0986 42.1548C21.938 42.1548 21.7659 42.1198 21.5823 42.0496C18.7828 40.9618 16.6258 39.3565 15.1113 37.2336C13.6198 35.1283 12.874 32.83 12.874 30.3387C12.874 27.9176 13.6312 25.6807 15.1457 23.628C16.6832 21.5578 18.8402 19.891 21.6167 18.6278C21.7774 18.5577 21.938 18.5226 22.0986 18.5226C22.351 18.5226 22.5576 18.6015 22.7182 18.7594C22.9018 18.8998 22.9935 19.0577 22.9935 19.2331C22.9935 19.4788 22.8559 19.6805 22.5805 19.8384C20.194 20.8911 18.3239 22.3736 16.97 24.2859C15.6161 26.1982 14.9392 28.2158 14.9392 30.3387C14.9392 32.4967 15.6047 34.5406 16.9356 36.4705C18.2665 38.4003 20.1481 39.8653 22.5805 40.8653C22.8559 40.9706 22.9935 41.1636 22.9935 41.4443C22.9935 41.6373 22.9132 41.804 22.7526 41.9443C22.592 42.0847 22.374 42.1548 22.0986 42.1548Z" fill="#272B2A"/>
<path d="M89.7754 42.1548C89.936 42.1548 90.1081 42.1198 90.2917 42.0496C93.0912 40.9618 95.2482 39.3565 96.7627 37.2336C98.2542 35.1283 99 32.83 99 30.3387C99 27.9176 98.2428 25.6807 96.7283 23.628C95.1908 21.5578 93.0338 19.891 90.2573 18.6278C90.0966 18.5577 89.936 18.5226 89.7754 18.5226C89.523 18.5226 89.3164 18.6015 89.1558 18.7594C88.9722 18.8998 88.8804 19.0577 88.8804 19.2331C88.8804 19.4788 89.0181 19.6805 89.2935 19.8384C91.68 20.8911 93.5501 22.3736 94.904 24.2859C96.2579 26.1982 96.9348 28.2158 96.9348 30.3387C96.9348 32.4967 96.2693 34.5406 94.9384 36.4705C93.6075 38.4003 91.7258 39.8653 89.2935 40.8653C89.0181 40.9706 88.8804 41.1636 88.8804 41.4443C88.8804 41.6373 88.9608 41.804 89.1214 41.9443C89.282 42.0847 89.5 42.1548 89.7754 42.1548Z" fill="#272B2A"/>
<path d="M76.9014 42.1548C77.062 42.1548 77.2341 42.1198 77.4177 42.0496C80.2172 40.9618 82.3742 39.3565 83.8887 37.2336C85.3802 35.1283 86.126 32.83 86.126 30.3387C86.126 27.9176 85.3688 25.6807 83.8543 23.628C82.3168 21.5578 80.1598 19.891 77.3833 18.6278C77.2226 18.5577 77.062 18.5226 76.9014 18.5226C76.649 18.5226 76.4424 18.6015 76.2818 18.7594C76.0982 18.8998 76.0065 19.0577 76.0065 19.2331C76.0065 19.4788 76.1441 19.6805 76.4195 19.8384C78.806 20.8911 80.6761 22.3736 82.03 24.2859C83.3839 26.1982 84.0608 28.2158 84.0608 30.3387C84.0608 32.4967 83.3953 34.5406 82.0644 36.4705C80.7335 38.4003 78.8519 39.8653 76.4195 40.8653C76.1441 40.9706 76.0065 41.1636 76.0065 41.4443C76.0065 41.6373 76.0868 41.804 76.2474 41.9443C76.408 42.0847 76.626 42.1548 76.9014 42.1548Z" fill="#272B2A"/>
</svg>
