<svg width="60" height="60" viewBox="0 0 60 60" fill="none" xmlns="http://www.w3.org/2000/svg">
<path d="M30.0345 8.65387C30.9904 8.65387 31.7652 7.87897 31.7652 6.92309C31.7652 5.96721 30.9904 5.19231 30.0345 5.19231C29.0786 5.19231 28.3037 5.96721 28.3037 6.92309C28.3037 7.87897 29.0786 8.65387 30.0345 8.65387Z" fill="#272B2A"/>
<path d="M53.0768 13.8461C53.0768 11.2971 51.0105 9.23067 48.4615 9.23067H42.0542C41.1995 8.28119 40.1016 7.5547 38.8401 7.19181C37.7776 6.88633 36.9598 6.06854 36.6542 5.00599C35.8227 2.11501 33.1583 0 29.9997 0C26.8414 0 24.1771 2.11487 23.3458 5.0057C23.0397 6.06955 22.2199 6.88633 21.156 7.19297C19.896 7.55614 18.7992 8.28192 17.9452 9.23067H11.5383C8.98911 9.23067 6.92285 11.2971 6.92285 13.8461V55.3846C6.92285 57.9336 8.98911 60 11.5383 60C22.1344 60 35.1573 60 48.4615 60C51.0107 60 53.0769 57.9336 53.0769 55.3846C53.0769 42.277 53.0768 29.7255 53.0768 13.8461ZM18.4615 13.8089C18.4774 11.7801 19.8482 9.97144 21.7951 9.41038C23.6283 8.88221 25.037 7.47393 25.5635 5.64363C26.1284 3.67934 27.9527 2.3077 29.9997 2.3077C32.047 2.3077 33.8712 3.67934 34.436 5.64378C34.9627 7.47523 36.3706 8.88307 38.202 9.40966C40.1662 9.97462 41.5381 11.799 41.5381 13.8459V16.1536H18.4615V13.8089ZM48.4615 57.6923C36.1362 57.6923 23.8311 57.6923 11.5383 57.6923C10.2657 57.6923 9.23056 56.657 9.23056 55.3846V13.8461C9.23056 12.5737 10.2657 11.5384 11.5383 11.5384H16.5491C16.2996 12.244 16.16 13.0013 16.154 13.7908V18.4615H43.8461V13.8461C43.8461 13.0362 43.703 12.2608 43.4475 11.5384H48.4615C49.7339 11.5384 50.7691 12.5737 50.7691 13.8461C50.7691 20.4437 50.7689 51.3829 50.7694 55.3846C50.7692 56.657 49.7341 57.6923 48.4615 57.6923Z" fill="#272B2A"/>
<path d="M43.8462 25.3847H23.0769V27.6924H43.8462V25.3847Z" fill="#272B2A"/>
<path d="M43.8462 32.3079H23.0769V34.6156H43.8462V32.3079Z" fill="#272B2A"/>
<path d="M43.8462 39.2309H23.0769V41.5386H43.8462V39.2309Z" fill="#272B2A"/>
<path d="M43.8462 46.1539H23.0769V48.4616H43.8462V46.1539Z" fill="#272B2A"/>
<path d="M17.3077 27.6924C17.9449 27.6924 18.4615 27.1758 18.4615 26.5385C18.4615 25.9013 17.9449 25.3847 17.3077 25.3847C16.6704 25.3847 16.1538 25.9013 16.1538 26.5385C16.1538 27.1758 16.6704 27.6924 17.3077 27.6924Z" fill="#272B2A"/>
<path d="M17.3077 34.6156C17.9449 34.6156 18.4615 34.099 18.4615 33.4617C18.4615 32.8245 17.9449 32.3079 17.3077 32.3079C16.6704 32.3079 16.1538 32.8245 16.1538 33.4617C16.1538 34.099 16.6704 34.6156 17.3077 34.6156Z" fill="#272B2A"/>
<path d="M17.3077 41.5386C17.9449 41.5386 18.4615 41.022 18.4615 40.3847C18.4615 39.7475 17.9449 39.2309 17.3077 39.2309C16.6704 39.2309 16.1538 39.7475 16.1538 40.3847C16.1538 41.022 16.6704 41.5386 17.3077 41.5386Z" fill="#272B2A"/>
<path d="M17.3077 48.4616C17.9449 48.4616 18.4615 47.945 18.4615 47.3077C18.4615 46.6705 17.9449 46.1539 17.3077 46.1539C16.6704 46.1539 16.1538 46.6705 16.1538 47.3077C16.1538 47.945 16.6704 48.4616 17.3077 48.4616Z" fill="#272B2A"/>
</svg>
