<svg width="24" height="24" viewBox="0 0 24 24" fill="none" xmlns="http://www.w3.org/2000/svg">
<g clip-path="url(#clip0)">
<path d="M18.395 5.39026C19.1293 4.57196 19.5574 3.71521 19.7075 2.83575C17.6313 1.09717 14.9605 0 12.0469 0C10.5425 0 9.10791 0.291138 7.78076 0.800537C10.0031 3.0271 11.8616 5.66345 13.3153 8.50928C15.4573 7.73474 17.2426 6.67511 18.395 5.39026Z" fill="#272B2A"/>
<path d="M19.4414 6.32962C18.1514 7.76737 16.2339 8.93668 13.9431 9.78647C14.2278 10.4109 14.4895 11.0482 14.7358 11.6939C15.9122 11.4408 17.1315 11.2969 18.375 11.2969C20.3326 11.2969 22.2343 11.6291 23.9879 12.2395C23.9896 12.1592 24 12.081 24 12C24 8.90463 22.8073 6.08939 20.87 3.96426C20.5842 4.78787 20.1097 5.58493 19.4414 6.32962Z" fill="#272B2A"/>
<path d="M0.27417 9.474C1.76886 9.73822 3.42487 9.89056 5.01569 9.89056C7.48175 9.89056 9.85059 9.54047 11.9618 8.93915C10.507 6.14404 8.63678 3.57159 6.40454 1.42029C3.36664 3.05414 1.02271 6.01056 0.27417 9.474V9.474Z" fill="#272B2A"/>
<path d="M23.8667 13.6873C22.1704 13.0488 20.3035 12.7031 18.375 12.7031C17.2939 12.7031 16.2323 12.8165 15.2084 13.0234C16.2479 16.1407 16.8494 19.5103 16.9521 22.9352C20.6091 21.2809 23.2822 17.7962 23.8667 13.6873V13.6873Z" fill="#272B2A"/>
<path d="M0 12.0001C0 15.6981 1.78253 19.0553 4.42841 21.2495C4.70874 19.3845 5.54956 17.5498 6.91901 16.0143C8.54791 14.188 10.8083 12.8204 13.3682 12.0398C13.1299 11.4253 12.8698 10.8229 12.5951 10.2289C10.3077 10.9073 7.73145 11.2969 5.01562 11.2969C3.35413 11.2969 1.62506 11.1382 0.0576782 10.8628C0.0221558 11.2376 0 11.6163 0 12.0001H0Z" fill="#272B2A"/>
<path d="M7.96893 16.9501C6.58557 18.5014 5.83612 20.3207 5.73999 22.182C7.57343 23.3269 9.73059 24 12.0469 24C13.2647 24 14.4397 23.8147 15.5477 23.4747C15.4938 19.9737 14.9061 16.5313 13.8375 13.3629C11.4983 14.0644 9.44073 15.2998 7.96893 16.9501V16.9501Z" fill="#272B2A"/>
</g>
<defs>
<clipPath id="clip0">
<rect width="24" height="24" fill="white"/>
</clipPath>
</defs>
</svg>
