<svg width="52" height="52" viewBox="0 0 52 52" fill="none" xmlns="http://www.w3.org/2000/svg">
<g clip-path="url(#clip0)">
<path d="M51.7881 22.177L43.0847 10.8711C42.7625 10.4529 42.175 10.3497 41.7294 10.633L36.1102 14.2067H28.7814C28.6866 14.2067 28.5922 14.227 28.5009 14.2536L22.8186 15.8893L16.9224 14.2766L11.1932 10.633C10.7552 10.3545 10.1784 10.4489 9.85269 10.8528L0.226072 22.7769C-0.119875 23.2053 -0.0627464 23.831 0.354612 24.19L5.40021 28.5322L9.92688 34.6323C8.603 36.0427 8.62878 38.2671 10.0062 39.645C10.6168 40.2552 11.3932 40.5999 12.1918 40.68C12.164 40.861 12.1497 41.0446 12.1497 41.2311C12.1497 42.1936 12.5247 43.0985 13.205 43.7789C13.8858 44.4597 14.7908 44.8346 15.7532 44.8346C15.7663 44.8346 15.779 44.8338 15.7917 44.8334C15.7913 44.858 15.7901 44.8822 15.7901 44.9068C15.7901 45.8693 16.165 46.7742 16.8454 47.455C17.5262 48.1354 18.4312 48.5103 19.3936 48.5103C19.5836 48.5103 19.7717 48.4948 19.9562 48.4662C20.0343 49.2676 20.3799 50.0476 20.9924 50.6602C21.6946 51.3628 22.6174 51.7139 23.5402 51.7139C24.463 51.7139 25.3858 51.3628 26.0884 50.6602L26.6395 50.1091L26.8708 50.2956C27.5674 50.9704 28.472 51.3076 29.3765 51.3076C30.2993 51.3076 31.2221 50.9565 31.9243 50.2539C32.6412 49.537 32.9923 48.5908 32.9776 47.6494C33.9186 47.6637 34.8652 47.313 35.5821 46.5965C36.2982 45.88 36.6493 44.9346 36.6354 43.9935C37.6158 44.009 38.5457 43.6325 39.2396 42.9386C39.9565 42.2217 40.3076 41.2755 40.2929 40.3341C41.2347 40.3484 42.1805 39.9977 42.8974 39.2808C44.1209 38.0573 44.2784 36.1661 43.3711 34.77L46.6762 27.8479L51.6453 23.5719C52.0559 23.2184 52.1186 22.6059 51.7881 22.177V22.177ZM10.8671 12.8424L14.9868 15.462L6.02505 26.38L2.43387 23.2891L10.8671 12.8424ZM11.4483 35.9907L12.6917 34.7474C12.7294 34.7097 12.769 34.674 12.8095 34.6406C13.0527 34.4423 13.3471 34.3241 13.6589 34.2959C13.6676 34.2951 13.6768 34.2951 13.6855 34.2947C13.7299 34.2911 13.7744 34.2887 13.8192 34.2891C14.2453 34.2951 14.6412 34.4693 14.9348 34.7791C15.5108 35.3881 15.4799 36.3831 14.8658 36.9972L13.6601 38.2029C13.0503 38.8126 12.0581 38.8126 11.4483 38.2029C10.8386 37.5927 10.8386 36.6005 11.4483 35.9907ZM14.6472 42.3368C14.3516 42.0416 14.1889 41.6489 14.1889 41.2311C14.1889 40.8133 14.3516 40.4206 14.6472 40.125L17.0581 37.7141C17.5199 37.2523 18.2459 37.1258 18.8362 37.407C19.4448 37.697 19.7872 38.3576 19.6979 39.0221C19.6503 39.3768 19.4853 39.7108 19.2321 39.9643L16.8593 42.3368C16.5638 42.6323 16.171 42.795 15.7532 42.795C15.3355 42.795 14.9427 42.6323 14.6472 42.3368ZM18.2875 46.0125C17.992 45.7173 17.8293 45.3245 17.8293 44.9068C17.8293 44.489 17.992 44.0963 18.2875 43.8007L20.6981 41.3898C21.192 40.8963 21.9843 40.7899 22.5889 41.1418C23.1411 41.4632 23.4303 42.094 23.3355 42.7224C23.2835 43.068 23.1193 43.3929 22.8721 43.64L20.4997 46.0125C20.2041 46.308 19.8114 46.4707 19.3936 46.4707C18.9759 46.4707 18.5831 46.308 18.2875 46.0125ZM22.4341 49.218C21.8244 48.6083 21.8244 47.6161 22.4341 47.0063L23.6775 45.7629C23.7152 45.7252 23.7545 45.6899 23.7949 45.6566C23.7961 45.6558 23.7969 45.655 23.7977 45.6542C24 45.49 24.2377 45.3801 24.4912 45.3321C24.4971 45.3313 24.5031 45.3305 24.509 45.3297C24.5527 45.3218 24.5971 45.3154 24.6415 45.3115C24.6594 45.3099 24.6772 45.3099 24.6955 45.3087C24.732 45.3067 24.7681 45.3043 24.805 45.3047C25.2307 45.3107 25.627 45.4844 25.9206 45.7947C25.9567 45.8328 25.9904 45.8724 26.0214 45.9133C26.4903 46.5262 26.4272 47.4367 25.8452 48.0191L24.6459 49.2184C24.0361 49.8282 23.0439 49.8278 22.4341 49.218V49.218ZM41.4553 37.8387C40.8455 38.4488 39.8533 38.4484 39.2435 37.8387C39.2213 37.8165 39.1979 37.7958 39.1741 37.7764L32.6178 31.151C32.2214 30.7507 31.576 30.7475 31.1757 31.1439C30.7754 31.5398 30.7722 32.1853 31.1681 32.5856L37.7955 39.282C37.7963 39.2828 37.7971 39.2836 37.7979 39.2844C38.4076 39.8941 38.4076 40.8867 37.7979 41.4965C37.5023 41.7921 37.1095 41.9547 36.6918 41.9547C36.2736 41.9547 35.8809 41.7921 35.5857 41.4965L31.1523 37.0171C30.7563 36.6168 30.1108 36.6136 29.7105 37.0095C29.3102 37.4058 29.3071 38.0513 29.703 38.4516L34.0686 42.8625C34.0908 42.8902 34.1146 42.9168 34.14 42.9422C34.7498 43.552 34.7498 44.5446 34.14 45.1544C33.5298 45.7641 32.5372 45.7637 31.9275 45.154L29.5078 42.7089C29.1115 42.3086 28.466 42.305 28.0657 42.7014C27.6654 43.0973 27.6622 43.7428 28.0582 44.1431L30.4104 46.5195C30.4326 46.5473 30.4564 46.5742 30.4822 46.5996C31.092 47.2094 31.092 48.202 30.4822 48.8118C29.8724 49.422 28.8802 49.4216 28.2704 48.8118C28.2002 48.7416 28.1177 48.6876 28.0391 48.6273C27.9725 48.5765 27.955 48.5412 27.9883 48.4603C28.0221 48.3782 28.0725 48.304 28.1062 48.2215C28.1435 48.1294 28.1736 48.0346 28.203 47.9394C28.3593 47.4355 28.4053 46.8936 28.3351 46.3707C28.2002 45.3674 27.6483 44.4621 26.812 43.8892C26.3602 43.5801 25.8373 43.3774 25.2954 43.3012C25.558 42.1428 25.2426 40.8867 24.4222 40.0199C23.7469 39.3066 22.8348 38.9063 21.8537 38.8928C21.818 38.8924 21.7823 38.8924 21.7462 38.8928C21.768 37.9565 21.4276 37.0262 20.7822 36.3442C20.1065 35.6309 19.1945 35.2306 18.2137 35.2171C17.9222 35.2131 17.6278 35.2441 17.3437 35.3095C17.2223 34.4649 16.7966 33.6833 16.1519 33.1243C15.5112 32.5697 14.7055 32.2619 13.8474 32.25C12.944 32.2369 12.0565 32.5701 11.3857 33.1759L7.44415 27.8649L16.8736 16.3772L19.8788 17.1993L15.954 24.125C15.4795 24.9625 15.3597 25.9344 15.6164 26.862C15.873 27.7899 16.4753 28.562 17.3128 29.0365C17.3651 29.0662 17.4179 29.0944 17.4715 29.1214C17.4754 29.1233 17.4794 29.1253 17.4838 29.1273C17.6246 29.1975 17.7694 29.2578 17.9162 29.3086C18.5998 29.5455 19.3381 29.5712 20.0502 29.3745C20.9778 29.1178 21.7498 28.5152 22.2243 27.6781L24.7748 23.1772L29.3289 23.5001L41.4557 35.6265C42.0651 36.2367 42.0651 37.2289 41.4553 37.8387V37.8387ZM41.8778 33.1648L30.5016 21.789C30.4802 21.7672 30.4576 21.7466 30.4342 21.7271C30.2703 21.5907 30.0672 21.5081 29.853 21.4931L24.2769 21.0975C23.8913 21.0709 23.5081 21.2761 23.3177 21.6121L20.4501 26.6727C20.2442 27.0362 19.909 27.2976 19.5063 27.4091C19.104 27.5206 18.6819 27.4682 18.3181 27.2623C17.9547 27.0564 17.6932 26.7212 17.5818 26.3185C17.4703 25.9158 17.5222 25.4937 17.7285 25.1303L21.5566 18.3744L23.1078 17.9281C23.1181 17.9249 23.128 17.9209 23.1383 17.9177L28.9278 16.2459H35.9229L44.6557 27.3472L41.8778 33.1648ZM45.9915 25.7468L37.9157 15.4751L42.0373 12.8539L49.5835 22.6559L45.9915 25.7468Z" fill="#272B2A"/>
<path d="M31.5031 12.2922C31.7642 12.2922 32.0252 12.1927 32.2244 11.9935L39.1893 5.02853C39.5877 4.63021 39.5877 3.98473 39.1893 3.58642C38.791 3.1881 38.1455 3.1881 37.7472 3.58642L30.7823 10.5514C30.3839 10.9497 30.3839 11.5952 30.7823 11.9935C30.9814 12.1927 31.2425 12.2922 31.5031 12.2922Z" fill="#272B2A"/>
<path d="M19.7758 11.9935C19.9749 12.1927 20.236 12.2922 20.497 12.2922C20.7577 12.2922 21.0187 12.1927 21.2179 11.9935C21.6162 11.5952 21.6162 10.9497 21.2179 10.5514L14.2529 3.58642C13.8546 3.1881 13.2091 3.1881 12.8108 3.58642C12.4125 3.98473 12.4125 4.63021 12.8108 5.02853L19.7758 11.9935Z" fill="#272B2A"/>
<path d="M25.9999 12.2923C26.5629 12.2923 27.0195 11.8357 27.0195 11.2727V5.50864C27.0195 4.94568 26.5629 4.48904 25.9999 4.48904C25.437 4.48904 24.9803 4.94568 24.9803 5.50864V11.2727C24.9803 11.8357 25.437 12.2923 25.9999 12.2923Z" fill="#272B2A"/>
<path d="M25.059 1.81307C25.2209 2.20544 25.6243 2.46291 26.05 2.4407C26.4706 2.41888 26.8399 2.13482 26.97 1.73452C27.1006 1.33105 26.9585 0.871238 26.6205 0.614157C26.2758 0.351523 25.7949 0.336844 25.4343 0.575278C25.032 0.841086 24.8761 1.37032 25.059 1.81307Z" fill="#272B2A"/>
</g>
<defs>
<clipPath id="clip0">
<rect width="52" height="52" fill="white"/>
</clipPath>
</defs>
</svg>
