<svg width="67" height="67" viewBox="0 0 67 67" fill="none" xmlns="http://www.w3.org/2000/svg">
<path d="M33.5509 14.4413C24.068 14.4413 16.3206 22.1888 16.3206 31.6717C16.3206 36.63 18.4898 41.4025 22.1466 44.6254C24.8737 47.3525 24.6258 53.1786 24.5639 53.2406C24.5639 53.5505 24.6258 53.7984 24.8737 54.0463C25.0597 54.2322 25.3696 54.3562 25.6175 54.3562H41.4223C41.7322 54.3562 41.9801 54.2322 42.1661 54.0463C42.352 53.8604 42.476 53.5505 42.476 53.2406C42.476 53.1786 42.1661 47.3525 44.8932 44.6254C44.9552 44.5634 45.0171 44.5014 45.0791 44.4395C48.6739 41.1545 50.7812 36.5061 50.7812 31.6717C50.7812 22.1888 43.0338 14.4413 33.5509 14.4413ZM43.4676 43.0139C43.4057 43.0759 43.2817 43.1999 43.2817 43.2619C40.8645 45.865 40.4306 50.1416 40.3687 52.1869H26.6712C26.6092 50.1416 26.1753 45.6791 23.5722 43.0139C20.2873 40.1629 18.3659 36.0102 18.3659 31.6097C18.3659 23.2424 25.1217 16.4866 33.4889 16.4866C41.8562 16.4866 48.612 23.2424 48.612 31.6097C48.612 36.0102 46.7526 40.1629 43.4676 43.0139Z" fill="#272B2A"/>
<path d="M33.489 18.8418C32.9311 18.8418 32.4353 19.3376 32.4353 19.8954C32.4353 20.4532 32.9311 20.9491 33.489 20.9491C39.7489 20.9491 44.7692 26.0314 44.7692 32.2294C44.7692 32.7872 45.2651 33.283 45.8229 33.283C46.3807 33.283 46.8766 32.7872 46.8766 32.2294C46.9385 24.8538 40.9265 18.8418 33.489 18.8418Z" fill="#272B2A"/>
<path d="M40.3687 55.5338H26.6092C25.1837 55.5338 24.0061 56.7114 24.0061 58.137C24.0061 59.5625 25.1837 60.7401 26.6092 60.7401H40.3068C41.7943 60.6781 42.9719 59.5625 42.9719 58.137C42.9719 56.7114 41.7943 55.5338 40.3687 55.5338ZM40.3687 58.5708H26.6092C26.3613 58.5708 26.1134 58.3849 26.1134 58.075C26.1134 57.7651 26.2994 57.5792 26.6092 57.5792H40.3068C40.5547 57.5792 40.8026 57.7651 40.8026 58.075C40.8026 58.3849 40.6166 58.5708 40.3687 58.5708Z" fill="#272B2A"/>
<path d="M38.3234 61.7937H28.6545C27.229 61.7937 26.0514 62.9713 26.0514 64.3968C26.0514 65.8223 27.229 67 28.6545 67H38.3234C39.7489 67 40.9265 65.8223 40.9265 64.3968C40.9265 62.9093 39.7489 61.7937 38.3234 61.7937ZM38.3234 64.8307H28.6545C28.4066 64.8307 28.1587 64.6447 28.1587 64.3348C28.1587 64.0249 28.3446 63.839 28.6545 63.839H38.3234C38.5713 63.839 38.8192 64.0249 38.8192 64.3348C38.8192 64.6447 38.5713 64.8307 38.3234 64.8307Z" fill="#272B2A"/>
<path d="M33.489 9.29695C34.1088 9.29695 34.5426 8.80111 34.5426 8.2433V1.05365C34.5426 0.495837 34.0468 0 33.489 0C32.9311 0 32.4353 0.495837 32.4353 1.05365V8.2433C32.4353 8.80111 32.9311 9.29695 33.489 9.29695Z" fill="#272B2A"/>
<path d="M51.0291 5.33015C50.5333 4.95827 49.9135 5.14421 49.6036 5.57807L45.6369 11.5281C45.265 12.024 45.389 12.7057 45.8848 13.0156C46.0707 13.1396 46.2567 13.2016 46.4426 13.2016C46.8145 13.2016 47.1244 13.0156 47.3103 12.7057L51.277 6.75568C51.6489 6.32182 51.5249 5.64005 51.0291 5.33015Z" fill="#272B2A"/>
<path d="M20.9071 12.9538C21.093 12.9538 21.279 12.8918 21.4649 12.7678C21.9607 12.4579 22.0847 11.7761 21.7748 11.2803L17.9321 5.26828C17.6222 4.77244 16.9404 4.64848 16.4446 4.95838C15.9487 5.26828 15.8248 5.95006 16.1347 6.44589L19.9774 12.4579C20.2253 12.8298 20.5352 12.9538 20.9071 12.9538Z" fill="#272B2A"/>
<path d="M13.4075 19.5236L7.14757 16.1148C6.65174 15.8668 5.96996 16.0528 5.72204 16.5486C5.41214 17.0445 5.59808 17.7262 6.1559 17.9742L12.4158 21.383C12.6018 21.445 12.7257 21.507 12.9117 21.507C13.2836 21.507 13.6554 21.3211 13.8414 20.9492C14.0893 20.4533 13.9034 19.7716 13.4075 19.5236Z" fill="#272B2A"/>
<path d="M61.3178 16.5486C61.0698 16.0528 60.3881 15.8668 59.8922 16.1148L53.5703 19.5236C53.0745 19.7716 52.8885 20.4533 53.1364 20.9492C53.3224 21.3211 53.6943 21.507 54.0661 21.507C54.2521 21.507 54.438 21.445 54.562 21.383L60.8839 17.9742C61.3797 17.7262 61.5657 17.0445 61.3178 16.5486Z" fill="#272B2A"/>
</svg>
