<svg width="24" height="24" viewBox="0 0 24 24" fill="none" xmlns="http://www.w3.org/2000/svg">
<g clip-path="url(#clip0)">
<path d="M7.996 21.3242C7.996 22.0192 7.475 22.3062 6.898 22.0192L0.67 18.9062C0.482 18.8172 0.324 18.6682 0.195 18.4592C0.066 18.2502 0 18.0422 0 17.8372V2.6102C0 2.0422 0.341 1.7852 1.112 2.1692L7.956 5.5892C8.055 5.6882 7.982 5.0082 7.996 21.3242V21.3242ZM8.853 7.0042L16.005 18.5722L8.853 15.0192V7.0042ZM24 7.2452V21.3242C24 21.5472 23.938 21.7272 23.812 21.8652C23.687 22.0032 23.517 22.0722 23.303 22.0722C23.089 22.0722 22.879 22.0142 22.674 21.8982L16.768 18.9592L24 7.2452ZM23.96 5.6422C23.96 5.6692 22.815 7.5372 20.525 11.2452C18.235 14.9532 16.893 17.1252 16.5 17.7572L11.277 9.2882L15.616 2.2492C15.852 1.8612 16.336 1.7932 16.661 1.9552L23.907 5.5622C23.942 5.5792 23.96 5.6062 23.96 5.6422V5.6422Z" fill="#272B2A"/>
</g>
<defs>
<clipPath id="clip0">
<rect width="24" height="24" fill="white"/>
</clipPath>
</defs>
</svg>
