<svg width="308" height="245" viewBox="0 0 308 245" fill="none" xmlns="http://www.w3.org/2000/svg">
<g opacity="0.3">
<path d="M301.781 20.3416C301.761 20.3416 301.741 20.3416 301.722 20.3416H281.5V12.6807C281.608 9.64852 279.837 6.92345 277.205 6.07646C263.165 2.0033 248.709 -0.0390597 234.195 0.000565672C210.334 0.000565672 177.824 5.94437 153.784 33.0217C129.923 5.68021 97.1737 0.000565672 73.3724 0.000565672C58.859 -0.0390597 44.4022 2.0033 30.3631 6.07646C27.7309 6.92345 25.9592 9.64852 26.0681 12.6807V20.2755H5.96524C2.67093 20.2755 0 23.2326 0 26.8798V237.819C0 241.466 2.67093 244.423 5.96524 244.423C6.98977 244.42 7.9964 244.124 8.8882 243.565C9.48473 243.234 69.1371 207.109 152.412 230.356H153.307H153.843C154.319 230.42 154.799 230.42 155.275 230.356C238.788 206.911 298.441 242.97 298.799 243.565C300.644 244.744 302.918 244.744 304.764 243.565C306.598 242.392 307.734 240.23 307.747 237.885V26.9458C307.747 23.2986 305.076 20.3416 301.781 20.3416ZM11.9305 227.318V33.5501H26.1874V199.184C26.1501 202.831 28.7905 205.821 32.0848 205.863C32.4069 205.867 32.729 205.842 33.0474 205.788C45.388 203.702 57.8471 202.599 70.3302 202.486C87.6219 202.154 104.841 205.034 121.273 211.006C84.1658 206.038 46.5266 211.653 11.9305 227.318ZM70.3302 189.344C59.4801 189.371 48.6428 190.143 37.8793 191.655V17.898C49.4936 15.0334 61.354 13.5714 73.2531 13.5392C95.5631 13.5392 126.344 19.2189 147.699 45.9L147.878 210.411C135.471 201.43 111.252 189.344 70.3302 189.344ZM159.809 45.9C181.164 19.483 211.945 13.5392 234.255 13.5392C246.153 13.578 258.014 15.0392 269.629 17.898V191.655C258.926 190.129 248.148 189.335 237.357 189.278C196.674 189.278 172.395 201.364 159.809 210.345V45.9V45.9ZM295.756 227.318C261.087 211.61 223.361 205.994 186.175 211.006C202.685 205.012 219.986 202.132 237.357 202.486C249.918 202.564 262.458 203.645 274.878 205.722C278.135 206.27 281.177 203.79 281.671 200.184C281.72 199.831 281.742 199.475 281.738 199.118V33.5501H295.995L295.756 227.318Z" fill="white"/>
</g>
</svg>
