<svg width="67" height="67" viewBox="0 0 67 67" fill="none" xmlns="http://www.w3.org/2000/svg">
<path d="M66.0186 29.4434C66.5607 29.4434 67 29.0039 67 28.4619V12.7588C67 12.2168 66.5607 11.7773 66.0186 11.7773H0.981445C0.439295 11.7773 0 12.2168 0 12.7588V28.4613C0 28.494 0.00170117 28.5266 0.0048418 28.5591C0.00615039 28.5724 0.00863672 28.5852 0.0104687 28.5983C0.0130859 28.617 0.0153105 28.6356 0.0189746 28.6541C0.0219844 28.6697 0.0263027 28.6848 0.0300977 28.6999C0.0340234 28.7158 0.0375566 28.7316 0.0422676 28.7473C0.0468477 28.7624 0.0524746 28.7769 0.057709 28.7915C0.0632051 28.8071 0.0684395 28.8227 0.0747207 28.838C0.0804785 28.8517 0.0871523 28.865 0.0934336 28.8784C0.100762 28.894 0.107697 28.9097 0.115811 28.925C0.122746 28.938 0.130598 28.9501 0.138057 28.9627C0.146955 28.9776 0.155461 28.9927 0.165145 29.0073C0.174305 29.0211 0.184512 29.0339 0.194457 29.0471C0.203748 29.0595 0.212385 29.0722 0.22233 29.0843C0.241436 29.1074 0.261719 29.1297 0.282787 29.1512C0.284357 29.1527 0.285666 29.1544 0.287236 29.1561C0.312885 29.1812 0.335523 29.2018 0.359209 29.2212C0.370201 29.2302 0.381848 29.238 0.393102 29.2465C0.407496 29.2574 0.421498 29.2684 0.436547 29.2785C0.449895 29.2875 0.463766 29.2952 0.477506 29.3033C0.491246 29.3116 0.504725 29.3202 0.518857 29.3278C0.532859 29.3353 0.547385 29.3417 0.561779 29.3485C0.576436 29.3554 0.59083 29.3627 0.605879 29.3689C0.619881 29.3747 0.634275 29.3794 0.648539 29.3845C0.664504 29.3902 0.680207 29.3964 0.696434 29.4012C0.710828 29.4055 0.725353 29.4087 0.739879 29.4123C0.756367 29.4165 0.772725 29.4211 0.789475 29.4245C0.806355 29.4279 0.823367 29.4299 0.840379 29.4322C0.855035 29.4343 0.869561 29.4372 0.884348 29.4386C0.916801 29.4417 0.949123 29.4434 0.981445 29.4434H5.88867V31.4062H0.981445C0.439295 31.4062 0 31.8457 0 32.3877V48.0908C0 48.6328 0.439295 49.0723 0.981445 49.0723H5.88867V66.0186C5.88867 66.5606 6.32797 67 6.87012 67H10.7959C11.338 67 11.7773 66.5606 11.7773 66.0186V52.0166C11.7773 51.4746 11.338 51.0352 10.7959 51.0352C10.2537 51.0352 9.81445 51.4746 9.81445 52.0166V65.0371H7.85156V49.0723H59.1484V65.0371H57.1855V52.0166C57.1855 51.4746 56.7463 51.0352 56.2041 51.0352C55.662 51.0352 55.2227 51.4746 55.2227 52.0166V66.0186C55.2227 66.5606 55.662 67 56.2041 67H60.1299C60.672 67 61.1113 66.5606 61.1113 66.0186V49.0723H66.0186C66.5607 49.0723 67 48.6328 67 48.0908V32.3877C67 31.8457 66.5607 31.4062 66.0186 31.4062H61.1113V29.4434H66.0186ZM52.6849 27.4805L65.0371 15.1283V27.4805H52.6849ZM63.6491 33.3691L49.9089 47.1094H36.2402L49.9804 33.3691H63.6491ZM19.7956 47.1094L33.5359 33.3691H47.2044L33.4641 47.1094H19.7956ZM3.35092 47.1094L17.0911 33.3691H30.7598L17.0196 47.1094H3.35092ZM11.7773 31.4062V29.4434H55.2227V31.4062H11.7773ZM3.35092 27.4805L17.0911 13.7402H30.7598L17.0196 27.4805H3.35092ZM47.2044 13.7402L33.4641 27.4805H19.7956L33.5359 13.7402H47.2044ZM63.6491 13.7402L49.9089 27.4805H36.2402L49.9804 13.7402H63.6491ZM14.3151 13.7402L1.96289 26.0924V13.7402H14.3151ZM7.85156 29.4434H9.81445V31.4062H7.85156V29.4434ZM14.3151 33.3691L1.96289 45.7214V33.3691H14.3151ZM52.6849 47.1094L65.0371 34.7572V47.1094H52.6849ZM59.1484 31.4062H57.1855V29.4434H59.1484V31.4062Z" fill="#272B2A"/>
<path d="M8.83301 9.81445C11.5389 9.81445 13.7402 7.61314 13.7402 4.90723C13.7402 2.20132 11.5389 0 8.83301 0C6.1271 0 3.92578 2.20132 3.92578 4.90723C3.92578 7.61314 6.1271 9.81445 8.83301 9.81445ZM8.83301 1.96289C10.4564 1.96289 11.7773 3.28365 11.7773 4.90723C11.7773 6.5308 10.4564 7.85156 8.83301 7.85156C7.20957 7.85156 5.88867 6.5308 5.88867 4.90723C5.88867 3.28365 7.20957 1.96289 8.83301 1.96289Z" fill="#272B2A"/>
<path d="M58.167 9.81445C60.8729 9.81445 63.0742 7.61314 63.0742 4.90723C63.0742 2.20132 60.8729 0 58.167 0C55.4611 0 53.2598 2.20132 53.2598 4.90723C53.2598 7.61314 55.4611 9.81445 58.167 9.81445ZM58.167 1.96289C59.7904 1.96289 61.1113 3.28365 61.1113 4.90723C61.1113 6.5308 59.7904 7.85156 58.167 7.85156C56.5436 7.85156 55.2227 6.5308 55.2227 4.90723C55.2227 3.28365 56.5436 1.96289 58.167 1.96289Z" fill="#272B2A"/>
</svg>
