<svg width="196" height="313" viewBox="0 0 196 313" fill="none" xmlns="http://www.w3.org/2000/svg">
<g opacity="0.3">
<path d="M6.10938 168.619C2.73578 168.619 0 171.355 0 174.728V211.384C0 214.758 2.73578 217.494 6.10938 217.494H19.3912L36.7662 307.845C37.3191 310.721 39.8362 312.8 42.7656 312.8H70.2578V306.631V300.581H47.812L31.8341 217.494H163.666L147.688 300.581H70.2578V306.301V312.8H152.734C155.664 312.8 158.181 310.721 158.734 307.845L176.109 217.494H189.391C192.764 217.494 195.5 214.758 195.5 211.384V174.728C195.5 171.355 192.764 168.619 189.391 168.619H158.357C180.656 154.54 195.5 129.681 195.5 101.416C195.5 98.042 192.764 95.3063 189.391 95.3063H171.063C142.797 95.3063 117.938 110.15 103.859 132.449C103.859 115.884 103.859 77.8756 103.859 67.2031H116.078C149.766 67.2031 177.172 39.7971 177.172 6.10938C177.172 2.73578 174.436 0 171.063 0H152.734C119.047 0 91.6406 27.4061 91.6406 61.0938V64.7997C80.4855 49.9472 62.7286 40.3219 42.7656 40.3219H6.10938C2.73578 40.3219 0 43.0577 0 46.4313V64.7594C0 98.4471 27.406 125.853 61.0938 125.853H91.6406V168.619H6.10938ZM152.734 12.2126H164.573C161.556 36.2885 140.959 54.9844 116.078 54.9844H104.239C107.256 30.9085 127.853 12.2126 152.734 12.2126ZM183.281 180.838V205.275C174.393 205.275 25.9746 205.275 12.2188 205.275V180.838H183.281ZM171.063 107.519L183.006 107.525C179.913 141.714 151.074 168.619 116.078 168.619H104.134C107.23 134.414 136.065 107.519 171.063 107.519ZM12.2188 64.7594V52.5406H42.7656C69.7153 52.5406 91.6406 74.466 91.6406 101.416V113.634H61.0938C34.1441 113.634 12.2188 91.709 12.2188 64.7594Z" fill="white"/>
</g>
</svg>
