<svg width="283" height="300" viewBox="0 0 283 300" fill="none" xmlns="http://www.w3.org/2000/svg">
<g opacity="0.3">
<path d="M112.059 187.434H80.3181L91.1055 164.579L109.421 174.28C111.615 175.457 114.288 175.043 116.085 173.261C117.882 171.479 118.452 168.697 117.502 166.287L88.0131 91.3135C87.0974 88.9887 84.9488 87.4694 82.5702 87.4694H5.89896C3.51423 87.4694 1.36062 88.9888 0.450522 91.3252C-0.465107 93.6623 0.0413641 96.3467 1.72942 98.1344L22.3139 119.941L2.74844 161.394C-1.17395 169.71 -0.759258 179.393 3.85427 187.3C5.07511 189.405 6.54421 191.279 8.19688 192.902L49.4754 256.063C57.1819 267.856 69.8697 274.904 83.4161 274.904H112.058C115.318 274.904 117.956 272.109 117.956 268.656V193.682C117.956 190.229 115.319 187.434 112.059 187.434ZM17.0203 184.451L16.4906 183.993C15.4882 183.066 14.6074 181.974 13.8875 180.735C11.4336 176.537 11.2152 171.394 13.2997 166.982L34.7656 121.503C35.9002 119.099 35.4567 116.194 33.6598 114.291L20.1365 99.9648H78.6362L100.517 155.591L91.1055 150.607C88.1856 149.069 84.6547 150.314 83.1916 153.401L67.1283 187.434H25.2339C22.1928 187.434 19.3243 186.367 17.0203 184.451ZM106.161 262.408H83.4167C73.7406 262.408 64.6811 257.374 59.1746 248.948L27.1343 199.93H106.161V262.408Z" fill="white"/>
<path d="M280.215 161.132L252.852 109.405C251.262 106.397 247.68 105.311 244.846 107.001L191.766 138.24C190.349 139.07 189.324 140.479 188.915 142.138C188.512 143.798 188.771 145.561 189.63 147.013L213.474 187.435H188.731V168.692C188.731 165.983 187.084 163.585 184.659 162.749C182.234 161.907 179.568 162.828 178.064 165.019L130.882 233.744C129.252 236.118 129.402 239.376 131.245 241.566L178.427 297.796C179.568 299.157 181.18 299.895 182.833 299.895C183.536 299.895 184.244 299.761 184.93 299.486C187.216 298.565 188.731 296.24 188.731 293.647V274.904H199.68C213.226 274.904 225.915 267.857 233.621 256.062C233.621 256.062 278.043 189.354 279.242 187.3C283.855 179.394 284.27 169.711 280.215 161.132ZM223.921 248.949C218.416 257.375 209.356 262.409 199.68 262.409H182.833C179.573 262.409 176.935 265.203 176.935 268.657V277.217L143.213 237.027L176.935 187.905V193.683C176.935 197.137 179.573 199.931 182.833 199.931H255.958L223.921 248.949ZM269.209 180.736C268.89 181.284 266.252 184.183 266.252 184.183C263.911 186.215 261.008 187.435 257.863 187.435H227.389L202.922 145.97L245.439 120.948L269.796 166.983C271.881 171.395 271.662 176.538 269.209 180.736Z" fill="white"/>
<path d="M162.339 78.8418L144.807 88.1279C142.538 89.3299 141.247 91.9352 141.604 94.6014C141.967 97.2618 143.891 99.3851 146.39 99.8607L211.266 112.356C211.617 112.429 211.974 112.46 212.32 112.46C214.669 112.46 216.835 110.971 217.762 108.616L247.251 33.6421C248.202 31.2318 247.632 28.4495 245.834 26.6683C244.031 24.8807 241.37 24.4842 239.17 25.6492L220.238 35.6798L206.538 13.9111C201.054 5.19836 191.885 0 182.002 0C182.002 0 107.923 0.250107 105.792 0.201492C93.1037 -0.225506 81.2851 5.97329 73.6194 16.8093L48.3634 52.4839C47.3322 53.93 46.9523 55.7845 47.315 57.5539C47.6777 59.3293 48.7548 60.8487 50.2582 61.715L115.133 99.2018C117.765 100.745 121.037 99.9216 122.753 97.3468L149.045 58.3587L162.339 78.8418ZM182.002 12.4954C187.929 12.4954 193.435 15.6133 196.723 20.8421L213.311 47.2C214.97 49.8235 218.195 50.7325 220.856 49.3233L230.267 44.3387L208.703 99.1655L165.91 90.9225L173.674 86.81C175.2 85.9988 176.324 84.5345 176.75 82.7831C177.176 81.0318 176.865 79.1709 175.897 77.6826L137.297 18.2004C135.96 16.1381 134.474 14.2344 132.868 12.4954H182.002ZM116.193 85.5841L61.8866 54.2047L83.0527 24.302C88.4149 16.7361 96.4554 12.3431 105.549 12.6969C114.482 12.8919 122.511 17.4741 127.574 25.2778L141.932 47.4073L116.193 85.5841Z" fill="white"/>
</g>
</svg>
