<svg width="54" height="54" viewBox="0 0 54 54" fill="none" xmlns="http://www.w3.org/2000/svg">
<path d="M34.3333 29.3165H9.11725C8.34445 29.3165 7.71094 28.683 7.71094 27.9102C7.71094 27.1374 8.34445 26.5039 9.11725 26.5039H34.3332C35.106 26.5039 35.7395 27.1374 35.7395 27.9102C35.7396 28.6852 35.1061 29.3165 34.3333 29.3165Z" fill="#272B2A"/>
<path d="M34.3333 23.0355H9.11725C8.34445 23.0355 7.71094 22.402 7.71094 21.6292C7.71094 20.8564 8.34445 20.2229 9.11725 20.2229H34.3332C35.106 20.2229 35.7395 20.8564 35.7395 21.6292C35.7396 22.402 35.1061 23.0355 34.3333 23.0355Z" fill="#272B2A"/>
<path d="M34.3333 16.1391H9.11725C8.34445 16.1391 7.71094 15.5056 7.71094 14.7328C7.71094 13.96 8.34445 13.3265 9.11725 13.3265H34.3332C35.106 13.3265 35.7395 13.96 35.7395 14.7328C35.7396 15.5056 35.1061 16.1391 34.3333 16.1391Z" fill="#272B2A"/>
<path d="M9.8226 46.8279C8.50549 46.8279 7.43659 45.7613 7.43659 44.4485V38.7666C3.07825 37.5431 0 33.5636 0 28.9789V13.0564C0 7.44205 4.56734 2.87471 10.1795 2.87471H33.6365C39.2509 2.87471 43.816 7.44205 43.816 13.0564V28.9767C43.816 34.5911 39.2487 39.1584 33.6365 39.1584H19.1138L11.4182 46.201C10.9785 46.6081 10.4103 46.8279 9.8226 46.8279ZM10.1795 5.05395C5.76676 5.05395 2.17689 8.64381 2.17689 13.0566V28.9768C2.17689 32.8213 4.93079 36.1239 8.72521 36.8314L9.61336 36.9968V44.4465C9.61336 44.6402 9.82013 44.649 9.82235 44.649C9.86812 44.649 9.90723 44.6316 9.94856 44.5968L18.269 36.9817H33.6385C38.0513 36.9817 41.6411 33.3918 41.6411 28.9769V13.0564C41.6411 8.64369 38.0513 5.05173 33.6385 5.05173H10.1795V5.05395Z" fill="#272B2A"/>
<path d="M45.2399 9.47761C45.253 9.68228 45.3008 9.87598 45.3008 10.085V11.6612C49.0061 12.3599 51.8209 15.6102 51.8209 19.5157V35.4382C51.8209 39.7704 48.3552 43.2906 44.0534 43.419V43.4277H41.8764V48.7462C41.8764 48.9399 41.6696 48.9486 41.6674 48.9486C41.6217 48.9486 41.5825 48.9312 41.5412 48.8964L35.5676 43.4279L34.0284 43.4432H29.5786C27.0206 43.4432 24.7609 42.2262 23.3068 40.3496H20.7488C22.4773 43.4757 25.758 45.6201 29.5808 45.6201H34.7402L40.0738 50.5009C40.5135 50.9058 41.0818 51.1256 41.6695 51.1256C42.9866 51.1256 44.0555 50.059 44.0555 48.7462V45.5939C49.5568 45.4655 54 40.9699 54 35.4361V19.5156C53.9979 14.3867 50.1772 10.1764 45.2399 9.47761Z" fill="#272B2A"/>
</svg>
