<svg width="140" height="140" viewBox="0 0 140 140" fill="none" xmlns="http://www.w3.org/2000/svg">
<path d="M139.022 85.5759C138.376 87.2247 137.358 88.7021 136.047 89.8926L135.872 90.0676C133.612 92.1854 130.626 93.3546 127.529 93.3344H110.845C109.854 93.3327 108.931 92.8274 108.395 91.9926L105.595 87.5009L93.8114 68.6592C93.3539 67.9939 93.2251 67.1561 93.4614 66.3842C93.6405 65.591 94.1499 64.9118 94.8615 64.5175L121.113 49.9343C122.533 49.1875 124.29 49.7041 125.08 51.101L138.613 75.2509C140.304 78.4537 140.454 82.2495 139.022 85.5759Z" fill="#336B68" fill-opacity="0.71"/>
<path d="M76.1933 23.8605L73.7432 27.3023L60.7344 45.4439C60.188 46.2219 59.293 46.6801 58.3425 46.6689C57.8549 46.6637 57.3753 46.5437 56.9424 46.3189L24.8577 28.819C24.1115 28.4236 23.578 27.7192 23.3994 26.894C23.2151 26.0584 23.4071 25.1839 23.9244 24.5023L36.4082 7.87734C36.9062 7.19757 37.4523 6.55445 38.0416 5.95235C41.5559 2.24537 46.41 0.102174 51.5172 0.00237C51.7906 -0.00720028 52.0646 0.0122137 52.334 0.0606119C58.5741 0.248736 64.3543 3.38779 67.9097 8.51882L76.1933 20.5355C76.8868 21.5355 76.8868 22.8608 76.1933 23.8605Z" fill="#336B68" fill-opacity="0.71"/>
<path d="M57.409 80.9125C56.5211 81.7282 55.223 81.9138 54.1421 81.3793L45.0417 76.8293L39.7332 87.5042L37.6331 91.7042C37.1299 92.6943 36.1187 93.3235 35.0079 93.3375H12.4904C9.36244 93.3752 6.34492 92.1808 4.09005 90.0125L3.97329 89.8957C2.62983 88.6628 1.57404 87.1493 0.88139 85.4625C-0.0138852 83.1801 -0.216785 80.6845 0.298121 78.2875C0.525085 77.2567 0.877562 76.2575 1.34817 75.3125L11.0319 56.0044L0.88139 45.7959C0.0164677 44.9909 -0.241396 43.7251 0.239603 42.6459C0.686967 41.5568 1.74549 40.8434 2.92297 40.8376H40.8415C42.0189 40.8434 43.0775 41.5568 43.5248 42.6459L58.1087 77.6457C58.5618 78.7759 58.2851 80.0673 57.409 80.9125Z" fill="#336B68" fill-opacity="0.71"/>
<path d="M58.3425 90.4176V125.417C58.3425 127.028 57.0365 128.334 55.4256 128.334H41.25C34.5551 128.35 28.2865 125.052 24.5074 119.526C23.6906 118.359 22.9906 117.309 22.3491 116.376L22.1158 116.143C22.1741 116.143 21.0075 114.51 19.899 112.876C19.3739 112.176 18.9657 111.476 18.5572 110.951C17.0403 108.734 16.2238 107.626 16.5738 108.093C16.282 107.626 15.9906 107.276 15.8738 107.043L15.8155 106.985C15.5823 106.635 15.5063 106.518 15.4948 106.489L15.4073 106.401L15.349 106.285C11.2656 100.393 7.47368 94.9096 4.09028 90.0097L3.97351 89.8929C2.86522 88.3762 1.87342 86.8597 0.881615 85.4597C-0.0136605 83.1773 -0.21656 80.6817 0.298346 78.2847L8.17371 85.8097C9.32685 86.9305 10.8828 87.5403 12.4907 87.5014H55.4259C57.0365 87.5012 58.3425 88.8068 58.3425 90.4176Z" fill="#336B68"/>
<path d="M122.278 15.6916L107.694 50.6915C107.247 51.7805 106.188 52.4939 105.011 52.4997C104.834 52.5093 104.657 52.4896 104.486 52.4414L72.4012 46.6082C71.1775 46.358 70.23 45.3873 70.0093 44.1582C69.8346 42.8993 70.4955 41.6721 71.6427 41.125L80.2763 36.8083L73.7428 27.3001L63.1255 11.7834C60.5592 8.13736 56.3836 5.96272 51.925 5.95014H38.0411C40.9258 2.89668 44.7418 0.886103 48.8916 0.23341L51.5168 0.058411H52.3335L90.0185 0.000169012C94.9116 -0.0233465 99.4903 2.40832 102.211 6.47514L108.919 16.6251L118.312 11.9584C119.392 11.4238 120.691 11.6092 121.578 12.4251C122.456 13.2695 122.733 14.562 122.278 15.6916Z" fill="#336B68"/>
<path d="M139.022 85.5751L136.28 89.5419L136.046 89.8919L135.871 90.0669L115.57 119.525C111.767 125.054 105.481 128.35 98.7697 128.333H93.3445V137.083C93.3352 138.291 92.5979 139.373 91.4776 139.825C91.1394 139.94 90.7847 139.999 90.4276 140C89.5965 140.006 88.8057 139.643 88.2692 139.008L64.9349 112.758C64.0093 111.754 63.9357 110.231 64.7599 109.142L88.0942 77.0584C88.8096 76.0314 90.106 75.5838 91.3026 75.9502C92.5241 76.3343 93.3521 77.4699 93.3445 78.7501V87.5001H127.529C129.137 87.5392 130.693 86.9294 131.846 85.8084L139.722 78.2834C140.259 80.7271 140.014 83.2783 139.022 85.5751Z" fill="#336B68"/>
</svg>
